<svg id="_Слой_1" data-name="Слой 1" xmlns="http://www.w3.org/2000/svg" viewBox="0 0 437.94 366"><defs><style>.cls-2{fill-rule:evenodd;isolation:isolate;opacity:.86}</style></defs><path d="M98 0c2.43.02 4.76.52 7 1.5a31.31 31.31 0 005 4.5c2.54-3.05 5.71-5.05 9.5-6 6.56 1.66 8.56 5.66 6 12a32.298 32.298 0 00-4.5 5c3.02 2.71 5.02 6.04 6 10-1.31 6.14-4.98 8.31-11 6.5a25.52 25.52 0 01-6.5-5.5c-3.87 6.03-8.87 7.36-15 4-1.46-2.87-1.79-5.87-1-9l5.5-5.5C91.56 11.73 91.23 5.9 98 0z" style="isolation:isolate" opacity=".9" fill-rule="evenodd"/><path d="M289 30c48.93 1.93 75.93 27.26 81 76-2.11 34.59-19.11 58.42-51 71.5-10.12 3.01-20.45 4.17-31 3.5-.33 20.91 0 41.74 1 62.5 12.09 5.75 24.76 9.59 38 11.5.82-2.95 1.32-5.95 1.5-9 .5-1.83 1.67-3 3.5-3.5 34-.67 68-.67 102 0 4.81 4.04 5.15 8.38 1 13a256.174 256.174 0 01-38 1.5v81c12.34-.17 24.67 0 37 .5 5.26 4.16 5.26 8.49 0 13-12.33.5-24.66.67-37 .5.17 3.02 0 6.02-.5 9-.83 2.17-2.33 3.67-4.5 4.5-19.67.67-39.33.67-59 0-1.99-.57-3.49-1.74-4.5-3.5-.19-5.25-.69-10.42-1.5-15.5-18.15-4.91-36.31-9.74-54.5-14.5-32.47 6.66-64.97 13.16-97.5 19.5-42.78-5.24-85.45-11.57-128-19-9.54-3.9-13.87-11.06-13-21.5-7.85.59-15.52-.24-23-2.5-5.57-3.29-9.07-8.12-10.5-14.5-.67-45.67-.67-91.33 0-137 2.07-8.4 7.23-13.9 15.5-16.5 70-.17 140-.67 210-1.5-13.03-30.87-8.86-59.2 12.5-85 14.14-13.82 30.97-21.82 50.5-24zm-3 15c37.77-.71 60.6 17.29 68.5 54 1.33 30.85-12.17 52.35-40.5 64.5-31.45 8.18-55.95-1.32-73.5-28.5-14.39-33.28-6.89-60.44 22.5-81.5 7.38-3.96 15.05-6.79 23-8.5zm-17 34c4.7 1.37 5.03 3.37 1 6-3.48-1.58-3.81-3.58-1-6zm48 48c4.7 1.37 5.03 3.37 1 6-3.48-1.58-3.81-3.58-1-6zM21 154c71.67-.17 143.33 0 215 .5 4.03 4.37 8.37 8.37 13 12-78 .27-156 .77-234 1.5-.16-3.02 0-6.02.5-9 1.11-2.61 2.94-4.28 5.5-5zm192 27h60v27c-86-.04-172 .29-258 1v-27c66.17.33 132.17 0 198-1zm47 41h13c.17 5.68 0 11.34-.5 17-18.79-6.21-37.62-6.38-56.5-.5-11.79 4.4-21.12 11.9-28 22.5-13.32.83-26.65 1.33-40 1.5-20.11 2.71-30.78 14.21-32 34.5-31.33.17-62.67 0-94-.5-2.99-.41-5.16-1.91-6.5-4.5-.5-23-.67-46-.5-69 81.84.33 163.5 0 245-1zm-28 27c11.84-.53 23.5.64 35 3.5 14.14 4.27 28.14 8.93 42 14a93.01 93.01 0 0019 2.5v62c-18.18-4.56-36.35-9.23-54.5-14-34.31 6.8-68.65 13.46-103 20-39.52-6-79.02-12.17-118.5-18.5-3.54-1.83-3.87-4.16-1-7 50.33-.33 100.67-.67 151-1 11.59-4.86 23.25-9.53 35-14 4.27-4.71 3.94-9.04-1-13a12.44 12.44 0 00-7 0c-10.67 4.33-21.33 8.67-32 13-22 .5-44 .67-66 .5-.27-8.9 3.73-15.07 12-18.5 17.27-1.29 34.6-1.96 52-2 5.29-8.95 12.29-16.29 21-22 5.35-2.17 10.68-4 16-5.5zm110 8h40v94h-40v-94z" style="isolation:isolate" opacity=".93" fill-rule="evenodd"/><path d="M269 64c14.72 2.1 20.55 10.43 17.5 25-3.47 6.62-8.97 10.29-16.5 11-15.68-3.69-20.51-13.02-14.5-28 3.62-4.38 8.12-7.05 13.5-8zm0 15c-2.81 2.42-2.48 4.42 1 6 4.03-2.63 3.7-4.63-1-6z" style="isolation:isolate" opacity=".92" fill-rule="evenodd"/><path d="M321 64c8.43 2.87 9.93 7.87 4.5 15a2416.696 2416.696 0 00-52 65c-6.72 5.02-11.55 3.69-14.5-4 .69-2.59 1.86-4.92 3.5-7 17.71-21.38 35.05-43.04 52-65 1.79-2.13 3.96-3.46 6.5-4z" style="isolation:isolate" opacity=".9" fill-rule="evenodd"/><path class="cls-2" d="M92 83c6.75-1.73 10.75.77 12 7.5-.57 4.73-3.23 7.23-8 7.5-6.13-.63-8.63-3.96-7.5-10 1-1.82 2.16-3.49 3.5-5z"/><path d="M315 112c12.18-.26 19.18 5.57 21 17.5-3.37 16.02-12.7 21.02-28 15-9.63-8.77-10.29-18.1-2-28 2.82-2.08 5.82-3.58 9-4.5zm2 15c-2.81 2.42-2.48 4.42 1 6 4.03-2.63 3.7-4.63-1-6z" style="isolation:isolate" opacity=".92" fill-rule="evenodd"/><path class="cls-2" d="M359 192c8.16-.68 11.66 2.99 10.5 11-2.91 3.78-6.74 4.94-11.5 3.5-5.04-5.15-4.71-9.99 1-14.5z"/><path d="M34 249c17-.17 34 0 51 .5 6.67 4.67 6.67 9.33 0 14-17.67.67-35.33.67-53 0-1.43-.46-2.6-1.3-3.5-2.5-1.96-5.97-.13-9.97 5.5-12z" style="isolation:isolate" opacity=".9" fill-rule="evenodd"/><path d="M360 269c8.51.06 11.34 4.06 8.5 12-4.62 4.15-8.96 3.81-13-1-1.22-4.87.28-8.54 4.5-11z" style="isolation:isolate" fill-rule="evenodd" opacity=".83"/><path d="M32 270c27.34-.17 54.67 0 82 .5 4 4.33 4 8.67 0 13-25.01.21-50.01.71-75 1.5-8.24.6-11.74-3.07-10.5-11 .69-1.85 1.86-3.18 3.5-4z" style="isolation:isolate" opacity=".95" fill-rule="evenodd"/></svg>