<svg data-name="Слой 1" xmlns="http://www.w3.org/2000/svg" viewBox="0 0 487.68 511.76"><path d="M239.74 1.8c-1.7 1.4-4 7.2-8.9 22.2l-6.6 20.4-22.8.5-22.9.5-2 2.7c-3.7 4.9-1.9 7 16.8 20.6 9.4 6.8 17.3 12.6 17.7 13 .5.5-2.1 9.8-5.7 20.9s-6.5 20.9-6.5 22c0 3.5 2.9 6.3 6.5 6.3 2.8 0 6.6-2.3 20.6-12.5 9.5-6.9 17.5-12.5 17.9-12.5s8.5 5.6 18 12.5c13.8 10 17.9 12.5 20.6 12.5 3.5 0 6.4-2.8 6.4-6.3 0-1.4-10.1-34.2-12.7-41.3-.2-.7 6.7-6.3 15.4-12.5 22.4-16.1 23.7-17.6 19.2-23.2l-2-2.7-22.7-.2-22.6-.3-6.6-20.3c-4.9-15.2-7.1-20.9-8.9-22.3-2.9-2.4-5.3-2.4-8.2 0zm8.5 42c2 6.6 4.4 12.5 5.3 13.3 1.1.9 6.1 1.5 15.5 1.8l13.9.5-10.5 7.5c-5.9 4.2-11 8.6-11.6 10-.8 2-.2 4.9 3 15 2.1 6.8 3.8 12.5 3.7 12.6s-4.9-3.2-10.6-7.4c-6.7-4.9-11.3-7.5-13-7.5s-6.3 2.7-13.1 7.6c-5.8 4.1-10.6 7.5-10.7 7.4-.1-.2 1.6-5.9 3.8-12.7 3.2-10.2 3.8-12.9 2.9-15-.6-1.4-5.6-5.8-11.6-10l-10.5-7.5 13.9-.5c9.4-.3 14.4-.9 15.5-1.8.9-.8 3.3-6.7 5.3-13.3 2.1-6.5 4-11.9 4.4-11.9s2.3 5.4 4.4 11.9zM64.84 56.2c-2.1 1-3.5 4.3-9.4 22.5l-7 21.2h-22.3c-21.2 0-22.4.1-24.4 2.1-1.4 1.4-1.9 3-1.7 5.7.3 3.5 1 4.2 17.8 16.4 9.6 7 17.6 13.1 17.8 13.7.2.5-2.7 10-6.3 21.1-7.1 21.5-7.4 23.7-2.9 26.7 3.7 2.4 5.3 1.5 24.8-12.6l16.8-12.3 4.6 3.3c2.6 1.9 10.7 7.7 18.1 13.1s14.1 9.8 14.8 9.8c1.8 0 5.6-2 6.5-3.4 1.7-2.5.5-8.1-5.7-26.6-3.6-10.6-6.4-19.4-6.2-19.5.1-.1 7.9-5.7 17.2-12.5 9.4-6.7 17.6-12.9 18.3-13.8 1.8-2.3 1.5-5.6-.7-8.3-1.9-2.4-2.3-2.4-24.6-2.9l-22.7-.5-6.5-20c-7.7-23.8-9.6-26.5-16.3-23.2zm7.5 42.7c2.1 6.3 4.4 12.3 5.2 13.2 1.3 1.5 3.8 1.8 15.7 2l14.1.3-11.3 8.2c-13.3 9.8-13.1 9.3-7.7 25.3 1.9 5.7 3.5 10.8 3.5 11.3 0 .4-2.7-1.1-6-3.5s-8.1-5.8-10.6-7.6c-2.6-1.7-5.8-3.2-7.2-3.2-1.6 0-6.4 2.8-12.9 7.5-5.6 4.1-10.5 7.5-10.7 7.5s1.4-5.5 3.6-12.3c2.7-8 3.9-13.2 3.5-14.8-.4-1.7-4-4.9-11.1-9.9-5.8-4.1-10.5-7.8-10.6-8.3 0-.4 5.9-.7 13.1-.7s13.9-.5 14.9-1c1.3-.7 3.1-4.8 5.6-12.8 3.7-11.8 4.3-13.6 4.9-13 .2.2 2 5.5 4 11.8zm343.2-41.8c-2 1.8-4.1 7-9 22.3l-6.5 20-22.7.5c-22.3.5-22.7.5-24.6 2.9-2.2 2.7-2.5 6-.6 8.3.6.9 8.9 7.1 18.2 13.8 9.4 6.8 17.1 12.4 17.2 12.5.2.1-2.6 8.9-6.2 19.5-6.2 18.5-7.4 24.1-5.7 26.6.9 1.4 4.7 3.4 6.5 3.4.7 0 9-5.6 18.4-12.4s17.5-12.6 18.2-13c.6-.4 8.1 4.4 17.8 11.5 19.2 14.1 21 15 24.7 12.6 4.4-3 4.2-5.1-2.9-26.7-3.6-11.2-6.4-20.7-6.3-21.2.2-.4 8.2-6.6 17.8-13.6 16.8-12.2 17.5-12.9 17.8-16.4.2-2.7-.3-4.3-1.7-5.7-2-2-3.2-2.1-24.4-2.1h-22.3l-6.8-20.9c-3.7-11.5-7.3-21.4-7.9-21.9-2.8-2.4-6.4-2.4-9 0zm8.8 43c2.4 7.9 4.2 12.1 5.5 12.8 1 .5 7.7 1 14.9 1s13.1.3 13.1.7c0 .5-4.8 4.1-10.5 8.2-7 5-10.8 8.3-11.2 9.9-.3 1.5.9 7 3.5 14.8 2.2 6.8 3.8 12.4 3.6 12.4-.1 0-5-3.4-10.7-7.5-6.5-4.7-11.3-7.5-12.9-7.5-2.2 0-11.2 5.7-20.8 13.2-1.3 1.1-2.6 1.6-2.7 1.1-.2-.5 1.3-5.5 3.2-11.3 5.4-16 5.6-15.5-7.7-25.3l-11.3-8.2 14.1-.3c11.9-.2 14.4-.5 15.6-2 .9-.9 3.3-7 5.4-13.4 2.1-6.5 4.1-11.4 4.5-11s2.4 6 4.4 12.4zm-195 57.9c-65.3 5.1-124.7 48.3-149 108.6-10.2 25.3-13 39.7-13 68.3 0 18.4.4 23.1 2.3 32.8 19.4 96.3 110.1 158.4 206.2 141.2 71-12.8 127.8-69 142-140.6 2.8-13.8 3.8-40.1 2.1-54.1-10.2-84.7-78-149.7-163.4-156.3-13.4-1-12.9-1-27.2.1zm47 16.9c33.6 7.2 61.8 22.9 85.4 47.6 44 46.1 57 113.7 33.2 172.8-20.4 50.9-66.4 89-119.6 99.1-54 10.4-108.5-6.4-147-45.2-72.2-72.6-60.1-192.6 25.1-250.1 18.9-12.8 41.9-21.8 66.3-25.7 12.9-2.1 43.6-1.3 56.6 1.5z"/><path d="M229.24 187.9c-34.5 3.7-64.9 18.2-89.4 42.9-21.1 21.3-33.7 44.2-40.2 73.1-2 9.1-2.3 13.2-2.3 30.5 0 15.5.4 21.9 1.8 28.5 4.5 21.2 14.2 43 26.2 59 54.1 72.5 158.4 80.5 222.3 17.1 20.5-20.4 34.6-46.7 40.9-76.1 1.4-6.6 1.8-13 1.8-28.5 0-17.3-.3-21.4-2.3-30.5-6.1-27.3-18.6-50.8-37.8-71-31.2-32.7-76.7-49.6-121-45zm36.6 15.5c47.7 7.8 89.3 43.5 104.4 89.7 4.8 14.8 6 23.2 6 41.3.1 18.6-1.2 27-6.4 42.7-12.5 37.6-43.3 69.1-80.5 82.4-16.1 5.7-27.8 7.7-45.5 7.7-12.1 0-17.7-.5-25.8-2.2-28.2-6-50.6-18.3-70.2-38.7-32.1-33.3-44.3-80.5-32.5-125.8 12.8-49.3 55.6-88.6 105.6-97 11.5-1.9 33.2-1.9 44.9-.1z"/><path d="M246.44 231.1c-2.3.6-5.8 2.9-8.6 5.7-4.2 4.1-5.7 7.1-15 29.3l-10.3 24.8h-4.5c-4 0-4.8-.4-8.5-4.6-4.9-5.5-8.8-7.4-15.7-7.4-8.8 0-15.2 3.8-19.3 11.5-2.2 4-2.2 4.5-2.2 61.5s0 57.5 2.2 61.5c7.6 14.2 24 16.6 34.1 5.1 1.7-2 3.2-4.1 3.2-4.6s21.1-1 51.3-1.2c57-.3 54.5 0 62.7-7.4 2.3-2.1 5-5.5 6.1-7.6 2.3-4.4 16.9-74.1 16.9-80.3 0-6.8-2.9-13.5-8-18.5-7.2-7.3-10.4-8-36.1-8h-21.7l3.1-9.3c2.5-7.7 3-10.9 3.1-19.7.1-11.9-.9-14.8-7.6-22.5-6.8-7.8-16.2-10.8-25.2-8.3zm13.9 17.2c6.7 7.2 6.6 15.1-.5 36.4-4.6 13.4-4.8 15.4-2 18.2 1.9 1.9 3.3 2 29.1 2 22.7 0 27.6.3 30.4 1.6 3.6 1.7 6 4.7 7 8.7.7 2.5-12.4 69.3-14.7 75-.6 1.5-2.4 3.9-4 5.2l-3 2.5h-97.8v-93h5c5.8 0 10.6-1.8 13.4-4.8 1-1.2 6.5-13.3 12.3-26.9 5.7-13.6 11.1-25.6 12-26.5 1-1.2 3.1-1.8 5.6-1.8 3.2 0 4.6.6 7.2 3.4zm-72.4 46.5l2.3 1.8.4 53.5c.4 48.5.3 53.7-1.2 56.6-3.5 6.8-10.5 5.9-12.5-1.5-1.5-5.1-1.5-101.4-.1-106.5 1.6-5.8 6.6-7.6 11.1-3.9z"/></svg>