<svg data-name="Слой 1" xmlns="http://www.w3.org/2000/svg" viewBox="0 0 401.9 374.4"><path d="M251.95.3c8.36-1.16 15.69 1.01 22 6.5 41.83 38.5 83.67 77 125.5 115.5 2.89 4.81 3.23 9.81 1 15-43.9 41.24-88.4 81.74-133.5 121.5-17.78 4.86-28.62-1.64-32.5-19.5-.5-13.33-.67-26.66-.5-40-28.76.48-57.42-.02-86-1.5a17.797 17.797 0 01-4.5-5.5c-.17-16.68-.67-33.34-1.5-50-36.85 34.02-73.85 67.85-111 101.5 36.87 34.54 74.03 68.7 111.5 102.5.33-16.67.67-33.33 1-50 1.49-4 4.32-6.5 8.5-7.5 54.67-.67 109.33-.67 164 0 8.17 3.84 10.67 10.01 7.5 18.5-1.96 2.64-4.46 4.47-7.5 5.5-49.33.5-98.67.67-148 .5.17 13.34 0 26.67-.5 40-1.17 10.83-7 17.67-17.5 20.5-7.8 1.62-14.8-.05-21-5-42.17-38.83-84.33-77.67-126.5-116.5-2.89-4.81-3.23-9.81-1-15 43.9-41.24 88.4-81.74 133.5-121.5 17.78-4.87 28.62 1.63 32.5 19.5.5 13.33.67 26.66.5 40 28.76-.48 57.42.02 86 1.5 1.88 1.54 3.38 3.38 4.5 5.5.17 16.68.67 33.34 1.5 50 36.85-34.02 73.85-67.85 111-101.5-36.87-34.54-74.03-68.7-111.5-102.5-.33 16.67-.67 33.33-1 50-1.49 4-4.32 6.5-8.5 7.5-61.67.67-123.33.67-185 0-9.62-5.11-11.46-12.27-5.5-21.5 1.42-.96 2.92-1.79 4.5-2.5 56.67-.5 113.33-.67 170-.5-.42-15.05.08-30.05 1.5-45 2.78-8.28 8.28-13.61 16.5-16z" style="isolation:isolate" fill-rule="evenodd" opacity=".96"/></svg>