<svg data-name="Слой 1" xmlns="http://www.w3.org/2000/svg" viewBox="0 0 511.3 459.85"><path d="M110 1.48c-55.5 10.2-98.7 53.3-108.6 108.5-.8 4.3-1.4 14.4-1.4 23.5.1 13 .5 18 2.4 26.4 5.1 23 15.6 44.3 29.6 59.8 3.9 4.4 5.2 5.3 8.1 5.3 4.2 0 7.4-3 7.4-6.9 0-2-1.5-4.7-5-8.9-29.8-35.7-36.3-85.1-16.6-126.8 15.5-32.7 43.8-55.7 79.5-64.7 7.2-1.8 11.5-2.1 27.1-2.2 19.9 0 25.5.9 40.2 6.1 19.5 7 29.1 13.8 52.6 36.8l19.3 19-32.5 32.6c-17.8 17.9-33.2 34.1-34.2 36-2.4 4.7-2.5 15.3-.1 19.7 4.9 9.2 20.8 19.1 34.1 21.4 12.5 2.1 26.4-.4 37.5-6.7 2.5-1.5 14.4-12.4 26.4-24.3l21.7-21.5 7.3 7c42.9 41.8 68.6 66.2 70.4 66.6 5.6 1.5 10.8-4.4 8.7-9.8-.7-1.8-31.1-31.6-76-74.6-11.1-10.5-9-11.5-38.8 18-19 18.8-26.3 25.4-30.1 27.1-15.1 7-32.9 4.4-44.2-6.4-4.7-4.6-5.2-6.5-2.5-11 2.8-4.5 108.1-108 115.9-113.9 13.2-9.9 32.5-18.2 49.1-21.1 12.5-2.2 32.2-1.9 44.5.6 15.7 3.2 34.3 11.1 44.6 19.1 5.3 4.1 13.1 1 13.1-5.2 0-3.5-2-5.8-9.3-10.4-13.8-8.8-32.9-16.2-49.2-19-11.8-2.1-33.5-2.1-45.6 0-17.8 3.1-36 10.4-52.1 21-4.5 2.9-15.2 12.6-27.6 24.8l-20.2 20-19.3-19.1c-24.3-24-33.5-30.7-52.9-38.7-16.2-6.7-27-8.8-47.3-9.2-12.9-.2-20.3.1-26 1.1z"/><path d="M471 48.48c-1.4 1.3-2.5 3.4-2.5 4.6s2.9 6.5 6.4 11.8 7.6 12.1 9.1 15.1c19.2 38.4 15.6 85.6-9.2 120.9-2.5 3.6-13 15-23.2 25.3l-18.5 18.8-14.1-13.9c-8.7-8.7-15.1-14.2-16.8-14.7-4.2-1-8.1 2.2-8.5 6.9-.3 3.4.5 4.3 27.9 31.4 18.7 18.4 28.8 29.1 30 31.8 2.3 5 2.5 14.2.3 19.3-2 4.9-7 10-11.9 12.3s-14.2 2.5-19.3.4c-2.5-1.1-15-12.9-38.3-36.1-34.4-34.3-34.6-34.5-38.4-34.2-4.9.4-8.1 4.2-7.1 8.5.5 1.9 13 15.1 39.1 41.3 26 26.1 38.9 39.7 40 42.2 3.5 8.5 1.3 19.1-5.5 25.8-6.7 6.8-17.3 9-25.8 5.5-2.5-1.1-16.1-13.9-41.8-39.5-39.2-39.2-39.5-39.4-44.9-37.4-2.6 1-4.5 6.3-3.3 9.4.5 1.4 15.7 17.3 33.8 35.5 22.1 22.2 33.4 34.2 34.5 36.7 1.9 4.8 1.9 13.8-.1 18.6-2 4.9-7 10-11.9 12.3-5 2.3-14.2 2.5-19.3.4-4.7-2-32.7-29.3-36.4-35.6-3.2-5.5-9.8-11.6-16-14.7-5.2-2.6-14.7-4.5-19.4-4l-3.1.4-.6-8.2c-1.2-20.4-16.1-35.1-36.5-36.2l-8.3-.5.6-2.7c1-4.4-1.4-15-4.8-21.3-3.4-6.5-10.6-13.5-17-16.6-5.1-2.5-14.8-4.4-19.3-3.9l-3.2.4-.4-8.2c-.3-6.7-1-9.4-3.6-14.7-3.8-7.7-11.1-14.8-19-18.5-5-2.4-6.9-2.7-16.2-2.7-14.5 0-18.6 2.1-34.3 17.3l-11.7 11.5-7.9-7.6c-6.8-6.7-8.3-7.7-11.4-7.7-3.9 0-7.7 3.6-7.7 7.3 0 1.1 3.5 5.5 8.1 10.3l8.2 8.3-6.5 6.9c-3.6 3.8-7.8 9.4-9.2 12.5-5.1 10.4-5.1 23.8-.1 34.3 5.2 10.6 18.1 20 29.1 21.1 5.2.6 5.3.6 4.6 3.2-.4 1.4-.7 6.9-.7 12.1 0 8.4.3 10.3 2.9 15.7 3.5 7.7 11.3 15.3 19.3 19.1 4.9 2.3 7.1 2.7 14.8 2.7 5 0 10.3-.2 12-.5 2.9-.5 2.9-.4 3.7 5 2.6 17.3 18 31 35.9 31.8 4.1.2 9.3-.1 11.4-.7s4.1-.8 4.3-.6c.3.3.9 2.8 1.3 5.7 1.9 11.7 10.3 22.9 21.4 28.4 5.5 2.7 6.9 2.9 17 2.9s11.4-.2 16.5-2.8c3-1.6 6.6-3.9 8-5.3l2.6-2.4 5.1 3.8c7.3 5.5 14.5 7.5 25.1 7 6.8-.3 9.9-1 14.5-3.2 11.3-5.4 20.2-17.6 21.4-29.2.6-5.2.6-5.3 3.2-4.6 1.4.4 6.9.7 12.1.7 8.3 0 10.3-.4 15.6-2.8 11.5-5.3 21.1-18.3 22.2-30l.5-4.8 3.1.8c1.7.4 7.2.8 12.1.8 8.2 0 9.7-.3 15.6-3.2 8-3.9 15-11.1 18.7-19.1 2.3-4.8 2.7-7.1 2.7-14.7 0-5-.4-10.4-.8-12.1l-.8-3.1 4.8-.5c11.8-1.1 24.5-10.6 30-22.3 2.5-5.4 2.8-7.1 2.8-16.5s-.2-11-3-16.4c-1.7-3.4-6.6-9.7-11.9-15.3l-8.9-9.4 19.5-19.7c19.9-20.1 26.3-28.2 33.8-43.2 18.1-36 18.4-79.8.9-116.7-4.5-9.5-15-25.6-18.2-27.8-3.1-2.2-6.4-1.9-9.2 1zm-333.2 188c11.4 4.7 17.1 17.3 13.5 29.9-1 3.4-5.2 8.2-23.7 26.9-14.2 14.3-24.1 23.5-26.6 24.7-5 2.4-14 2.6-19.3.4-12.3-5.1-18.2-20.6-12.2-32.4 3.2-6.5 43.1-46.2 49-48.9 5.4-2.5 14.2-2.7 19.3-.6zm47.3 46c5.7 3.4 10 9.2 11.5 15.9 1 4.4.9 6.2-.6 11.2-1.6 5.7-2.4 6.7-28.3 32.7-16.8 16.8-28.2 27.5-30.8 28.7-4.8 2.4-13.9 2.7-18.8.6-4.8-2-10.7-7.5-12.7-12.1-2.5-5.5-2.4-14.7.2-20.5 1.4-3.1 8.9-11.3 25.2-27.8 24.2-24.3 29.9-29.3 35.7-31.1 5.4-1.6 13.5-.6 18.6 2.4zm40.5 42.6c8.6 2.6 15.9 12.6 15.9 21.8 0 9.9-.8 11-24.9 35.4-14.2 14.3-24.1 23.5-26.6 24.7-5.4 2.6-14.5 2.6-20 .1-11.9-5.5-17.3-20.7-11.5-32.2 3.2-6.4 43.1-46.1 49-48.8 5-2.3 12.3-2.7 18.1-1zm48.4 46.4c11.1 6.5 15.3 20.3 9.5 31.5-2.7 5.2-36.7 38.6-41.2 40.5-8.1 3.3-19.7 1.2-26-4.7-7.2-6.9-9.3-19-4.8-27.8 2.5-4.9 28.6-32 36-37.5 2.5-1.8 6.1-3.8 8-4.4 5.4-1.6 13.5-.6 18.5 2.4zm35.6 40c1.2 2.5 1.9 6.3 1.9 10 0 13.8-9.9 23.5-23.7 23.5-6.1 0-12.7-2.4-15.2-5.4-1.3-1.5-.2-2.9 10.7-14 11.3-11.4 13.7-14.7 16.6-23 .6-1.8 1-1.6 4.3 1.5 1.9 1.9 4.4 5.2 5.4 7.4z"/></svg>