<svg data-name="Слой 1" xmlns="http://www.w3.org/2000/svg" viewBox="0 0 398.64 479.67"><path d="M157.3 1.07c-13.9 4.5-23.6 18.9-22.1 33 1.1 11 2.7 13.1 32.7 43.1 24.7 24.7 28.2 27.8 31 27.8s6.3-3.1 31-27.8c31.9-31.9 32.4-32.6 32.5-46 0-6.3-.5-9-2.3-12.6-3.4-7-8.7-12.5-15-15.6-4.7-2.3-7-2.8-13.2-2.8-10.9 0-15.9 2.2-25.3 11.4l-7.8 7.5-7.2-7.2c-4.4-4.3-9.2-8-12.2-9.3-6.1-2.7-16.4-3.4-22.1-1.5zm16.4 16.5c2 1.1 7.7 6 12.7 11 12.3 12.4 12.5 12.4 26-.9 5.6-5.4 11.4-10.4 12.9-11 4.5-1.7 10-1.2 13.7 1.3 7.3 4.9 9.8 12.9 6.4 20.1-.8 1.7-11.6 13.2-24 25.6l-22.5 22.5-22.1-22c-12.1-12.1-22.9-23.7-24-25.7-7-13.4 7.5-27.8 20.9-20.9zm-60.2 33c-2.3 2.5-7.6 16.8-7.6 20.4 0 6.2 5 9.6 10.7 7.2 2.6-1.1 3.6-2.7 6.3-9.6 4.4-11.4 4.7-13.8 2-17.2s-8.7-3.8-11.4-.8zm159.3 0c-3.2 2.5-2.9 6.6 1.1 17.4 3.4 9.2 5.1 11.1 10.3 10.9 3.4-.1 6.3-2.4 7.1-5.7.8-3-4.8-19.2-7.7-22.3-2.6-2.7-7.6-2.9-10.8-.3zm-202.4 1.6c-1.6 1.5-2.5 3.5-2.5 5.6 0 2.8 1.4 4.6 8.8 12.1 9.8 9.8 12.4 10.7 16.7 6.3 4.3-4.2 3.4-7.4-4.6-16.5-3.9-4.4-7.9-8.5-8.9-9-3.2-1.7-7-1.1-9.5 1.5zm246.5-1.2c-.9.7-4.8 4.7-8.8 8.9-5.7 6.1-7.2 8.3-7.2 10.8 0 4.1 3.9 8 7.9 8 3.4 0 5.5-1.8 14.5-11.7 4.5-5.1 5.6-7 5.6-9.7 0-5.8-7.6-9.8-12-6.3zM69 86.27c-8 1-10.9 1.8-12.5 3.3-2.6 2.6-2.6 8.3-.1 11.1 2.1 2.3 7.1 2.6 19.5 1 6.1-.8 7.9-1.4 9.8-3.5 1.2-1.5 2.2-3.7 2.2-5 0-2.8-3.6-7.1-6.5-7.8-1.1-.2-6.7.1-12.4.9zm245.2-.5c-3.6 1.3-5.7 5.4-4.7 9.2 1.4 4.7 5.8 6.5 18.5 7.3l10.5.7 2.2-2.8c2.8-3.5 2.8-6.7-.1-10-1.9-2.2-3.4-2.8-10.2-3.6-4.4-.5-9.3-1-11-1.3-1.6-.2-4 0-5.2.5z"/><path d="M102.7 91.77c-2.1 1.2-40.9 65.6-45.1 74.9-1.6 3.6-4.1 10.8-5.5 16-2.1 8-2.5 11.7-2.5 23.5 0 22.6 2.8 31.9 18.3 60.1 5.5 9.9 10 18.6 10 19.2 0 2.6-31.4 110.9-33.1 114.4-2.5 4.9-7.1 8.3-14.4 10.3-9.3 2.7-14.7 5.9-20.3 11.9-5.2 5.8-8.8 13.4-9.8 21-1.1 7.6-2.1 7.1 52.1 22.6 26.9 7.7 49.7 14 50.6 14 5.9 0 10.6-11.4 9.7-23.8-.7-9-4.2-16.7-11.1-24-7.2-7.5-9-11.4-8.9-18.2.1-3.8 4.9-22 16-60.4l15.9-54.9 18.4-10.2c10.1-5.7 22-13.1 26.4-16.6 9.8-7.8 19.9-20.3 25.6-31.5l4.3-8.4 4 7.7c5.9 11.2 10 16.8 18.5 25.4 9.3 9.2 12.3 11.3 34.2 23.5 9.6 5.3 17.6 9.8 17.8 10 .2.1 7.5 25.1 16.2 55.5 10.8 37.4 15.9 56.8 15.9 60.1 0 6.8-1.9 10.7-9 18.3-7.7 8.3-10.1 13.7-10.7 24-.8 13.1 3.5 23.5 9.7 23.5 1.9 0 90.1-25.2 96.6-27.5 5.8-2.2 7.1-5.1 5.5-11.8-4-15.9-13.9-26-29.3-30-6.4-1.7-10.7-4.4-13.8-8.7-1.2-1.7-8.6-25.8-18.4-59.8l-16.2-56.8 8.9-16c14.2-25.2 17.6-34.3 19.8-52.6 1.8-15.7-.8-32.8-7.6-48.8-3.3-7.9-41.9-72.8-44.7-75.3-1.1-.9-3.2-1.7-4.7-1.7-1.4 0-22.8 5.9-47.5 13l-44.9 12.9-45.3-12.9c-25-7.2-46.4-13-47.6-13-1.3 0-3.1.5-4 1.1zm84.5 38l3.7 1v16.3c0 9-.3 19.1-.6 22.5l-.7 6.1h-16.1c-17.7 0-33.5-1.1-49.6-3.5-11.3-1.7-43-9.2-44.3-10.4-.6-.6 20.2-36.7 29.8-51.7 1.4-2.2 1.4-2.1 37.7 8.2 20 5.8 38 10.9 40.1 11.5zm117.6 5.8c8.3 14 15 25.6 14.8 25.8-.9.8-19.1 5.7-29.6 7.9-20.3 4.2-36.1 5.7-59.6 5.8l-22 .1-.3-22.2-.2-22.3 2.2-.5c1.3-.4 19.2-5.5 39.8-11.4 27.4-7.9 37.8-10.5 38.6-9.7.6.6 8 12.5 16.3 26.5zm26 50.3c4.1 15.9 3.6 31.4-1.5 46.8-2.3 7-21.5 43.3-23.5 44.6-.5.3-6.1 2-12.3 3.8l-11.5 3.3-17.3-9.6c-20.9-11.6-25.5-14.9-34.7-24.7-5.2-5.6-8.2-10-12-17.7-5.9-11.9-8-19.8-8.8-31.7l-.6-8.7 23.9-.6c32.5-.9 58.9-4.8 85.4-12.6 7.5-2.2 9.7-2.5 10.3-1.5.4.8 1.6 4.6 2.6 8.6zm-244.4-5.4c26.1 7.2 47.2 10.1 79.4 10.9l24.4.6-.6 8.6c-1.5 19.6-8.5 36.1-21.5 50.2-8.3 9-13.2 12.5-33.9 23.9l-17.4 9.7-12.3-3.5-12.2-3.5-10.3-18.7c-5.6-10.4-11.3-21.9-12.6-25.8-5.8-17.2-5.7-37.6.4-53.6 1.3-3.2.3-3.3 16.6 1.2zm15 116c4.9 1.5 5.9 2.2 5.7 3.8-.2 1-7 25.3-15.2 53.9-8.1 28.6-15.1 53.8-15.4 56-1.6 9.6 3.3 22.2 11.8 30.9 3.1 3.2 6.3 7.4 7.1 9.4 1.9 4.4 2 11.6.3 10.9-.7-.2-18.4-5.3-39.3-11.2-20.9-6-38.2-11-38.4-11.1-.2-.2.8-2.2 2.3-4.4 2.8-4.2 7.3-7 14.6-9 10.9-2.9 20-10 24.4-19 1.3-2.5 9.2-28.7 17.7-58.3 11.6-40.8 15.7-53.7 16.9-53.7.8 0 4.2.8 7.5 1.8zm219.9 50.5c15.1 53.1 17.4 60 22.1 66.1 3.7 4.9 12 10.2 19 12.1 8.1 2.3 13.9 5.8 16.5 10 1.2 2 2.1 3.7 1.9 3.9-.2.1-17.5 5.1-38.4 11.1-20.9 5.9-38.6 11-39.2 11.2-1.8.7-1.7-6.8.1-11.1.8-1.9 4.3-6.6 7.9-10.5 8.1-8.7 10.7-15 10.7-25.4 0-6.3-1.9-13.9-15.1-60.2-8.4-29.1-15.2-53.6-15.3-54.4-.1-1.3 9.4-4.8 13.4-5 1.1-.1 5.1 12.6 16.4 52.2z"/><path d="M301.1 194.97c-2.6 2.7-2.8 6.1-.7 11 .8 2 1.5 5.7 1.5 8.2s-.7 6.2-1.5 8.2c-2.8 6.6-1.6 11.2 3.4 13.3 4.4 1.8 8-.3 11.1-6.5 2.2-4.4 2.5-6.2 2.4-15-.1-10.5-1.5-15.6-5.4-19.5-2.8-2.8-8.1-2.6-10.8.3zm-9.1 45c-1.4.7-4 4.2-5.9 7.9-3.2 6.1-3.4 6.9-2.2 9.8 2.2 5.4 9 6.9 12.7 2.7 2.8-3.1 7.3-11.1 7.3-13 0-2.9-2.2-6.5-4.7-7.6-3-1.4-4.2-1.4-7.2.2zm-138.6-29.8c-1.5 1.4-2.5 3.6-2.5 5.2 0 6.2-2.1 10.4-8.1 16.3-6.3 6.2-6.8 7.5-4.4 12 3.1 6 9.3 5.2 17-2.1 6.3-5.9 10.5-14.5 11.2-22.9.5-5.3.3-6.1-2-8.4-3.4-3.4-7.9-3.4-11.2-.1zm-34.2 36.1c-6.7 3.7-8.3 5.7-8.3 9.9 0 3.5 4.2 7.5 7.7 7.5 4.1 0 15.1-7.3 15.9-10.5 1.2-4.8-3.1-10.5-7.9-10.5-.7 0-4 1.6-7.4 3.6z"/></svg>