<svg data-name="Слой 1" xmlns="http://www.w3.org/2000/svg" viewBox="0 0 512 406.43"><path d="M512 60.43v22c-6.48 71.82-12.65 143.82-18.5 216-4.18 21.51-17.18 33.18-39 35-4.8-.69-9.64-1.36-14.5-2-.83 14.65-1.33 29.32-1.5 44-4.07 15.73-13.9 25.9-29.5 30.5-126.33.67-252.67.67-379 0-15.85-4.02-25.85-13.85-30-29.5v-243c4.23-16.06 14.56-25.89 31-29.5 12-.5 24-.67 36-.5 2.39-23.67 4.89-47.34 7.5-71C81.86 7.15 98.7-3.35 125 .93c119.01 9.83 238.01 19.83 357 30 15.86 4.02 25.86 13.86 30 29.5zm-404-39c121.37 9.28 242.7 19.11 364 29.5 12.9 1.4 19.24 8.57 19 21.5-5.95 74.68-12.11 149.35-18.5 224-2.15 9.32-7.98 14.65-17.5 16a386.08 386.08 0 00-16-2c.17-58.67 0-117.33-.5-176-4.17-16.17-14.33-26.33-30.5-30.5-106.67-.5-213.33-.67-320-.5 2.46-22.66 4.96-45.33 7.5-68 1.95-6.78 6.12-11.45 12.5-14zm-74 103c123.67-.17 247.33 0 371 .5 5.02 1.69 8.86 4.86 11.5 9.5 1.42 9.25 1.92 18.59 1.5 28H20c-.3-8.72.2-17.39 1.5-26 2.77-5.6 6.94-9.6 12.5-12zm-14 59h398v40H20v-40zm0 61h398c.17 42.67 0 85.33-.5 128-2.08 5.75-5.91 9.91-11.5 12.5-124.33.67-248.67.67-373 0-7.62-3.3-11.79-9.13-12.5-17.5-.5-41-.67-82-.5-123zm271 50h75v42h-75v-42z" style="isolation:isolate" opacity=".95" fill-rule="evenodd"/><path d="M277 273.43c34.33-.17 68.67 0 103 .5 3.08.79 5.25 2.62 6.5 5.5.98 24.75.65 49.42-1 74a15.797 15.797 0 01-5.5 3.5c-35.06.98-70.06.65-105-1-2.31-1.64-3.81-3.8-4.5-6.5a1150.5 1150.5 0 010-68c1.28-3.44 3.44-6.11 6.5-8zm14 21v42h75v-42h-75z" style="isolation:isolate" fill-rule="evenodd" opacity=".95"/></svg>