<svg data-name="Слой 1" xmlns="http://www.w3.org/2000/svg" viewBox="0 0 511.5 509.57"><path d="M347 1.1c-4.9 2.6-5.8 6.9-2.4 11.2 2.7 3.4 7.7 3.6 10.7.3 2.9-3.1 2.8-7.2-.3-10.2-2.6-2.7-4.9-3.1-8-1.3zm58.8 21.3c-1.2.9-3.7 4.3-5.5 7.8-4.8 8.9-14.4 18.7-22.8 23.1-7.6 4-10 6.6-10 10.8 0 3.3 1.5 4.8 8.2 8.1 10.1 5 18.1 13 24.8 24.9 2 3.5 4.8 7 6.3 7.8 2.4 1.3 3 1.3 5.4 0 1.5-.8 4.3-4.3 6.3-7.8 6.6-11.7 13.9-19.1 23.9-24.2 7.1-3.7 9.1-5.8 9.1-9.5s-2.3-6-10.8-10.5c-8-4.2-17.5-14.2-22.4-23.6-4.6-8.7-7.6-10.3-12.5-6.9zm8 27.3c2 2.7 6.1 6.9 9.2 9.3l5.5 4.4-3.3 2.4c-4.2 3.3-9.6 8.7-12.9 13.1l-2.7 3.4-2.2-2.9c-3-4-9.6-10.5-13.6-13.6l-3.3-2.4L396 59c3.1-2.4 7.2-6.6 9.2-9.3 2.1-2.6 4-4.8 4.3-4.8s2.2 2.2 4.3 4.8zm-248.1-5.3C101.4 52.2 62.6 57.3 61.5 58.1c-1.1.7-15.3 21.8-31.7 46.8C5.9 141.5.1 151.1 0 153.8c0 3 2.3 6 20.5 26.7 11.3 12.8 21.7 23.8 23.1 24.4 2.2.9 3.3.9 5.7-.4 1.6-.8 3.2-2.3 3.6-3.1 1.7-4.6.5-6.6-14.8-23.7-8.5-9.5-15.1-17.6-14.7-17.9.8-.8 80.4-10.1 83.1-9.7 1.8.3 7.2 13.2 39 94.8 20.3 51.9 36.8 94.6 36.6 94.7-.1.1-24-26.6-53.2-59.5-47.3-53.4-53.2-59.7-56.1-60-2.4-.2-3.9.3-5.8 2.2-4.2 4.2-3.3 6.6 5.6 16.8 77.6 88.2 128.7 145 130.7 145.5 6 1.5 6.6.6 25.1-34 9.7-18 17.8-32.7 18.1-32.7s14.5 33 31.6 73.3c33.4 78.4 33.2 78 39.3 76.1 2.3-.7 52.2-46.6 68.4-62.9 3.7-3.7 3.7-8.6.1-11.4-5-3.9-6.3-3.1-24.2 13.6-9.2 8.7-17.5 16.5-18.6 17.3-1.3 1 73.4-150.4 74.8-151.6.3-.3 68.9 14.6 69.4 15.1.4.3-1.3 2.3-3.6 4.3-18.2 16.2-78.2 74-78.6 75.8-1.4 5.3 4.8 10.9 9.7 8.7 3.1-1.4 94.2-87.3 95.6-90.1.6-1.3 1.1-2.9 1.1-3.7 0-1.9-43.7-84.4-45.9-86.8-1.3-1.3-19.1-5.4-68.8-16-37-7.8-67.5-14.6-67.9-14.9-.3-.4 5.3-11.7 12.5-25.1 7.2-13.5 13.1-25.2 13.1-26 0-.9-.3-2.2-.6-3.1s-16.7-16.8-36.3-35.4c-45.3-42.9-44.2-42-47.1-42.5-1.4-.3-48.6 5-104.8 11.8zm85.4 26.7c-11.9 36.5-13 39.8-13.6 39.8-.9 0-53.4-52.9-53-53.3.6-.4 65.9-8.4 70.6-8.6l3.2-.1-7.2 22.2zm51.2 10.1c15 14.3 27.1 26.1 26.9 26.3-.2.3-74.7 9.4-76.8 9.4-.4 0 4-14.2 9.8-31.5 7.2-21.7 10.8-31.3 11.6-30.8.7.4 13.5 12.4 28.5 26.6zM152.5 61.6c-.1 1.6-38.6 63.5-39.5 63.6-.9 0-34.8-54.3-34.3-54.9.2-.1 16.5-2.3 36.3-4.7 19.8-2.5 36.3-4.5 36.8-4.6.4 0 .7.2.7.6zm71 58.2c0 .6-95.2 12.3-95.6 11.8-.1-.1 9.1-15.4 20.5-34.1L169 63.7l27.3 27.7c14.9 15.3 27.2 28.1 27.2 28.4zM83.1 106.7c17 27.5 17.1 27.7 14.5 28.4-3.7 1.1-70.9 9-73.1 8.6-1.4-.2 2.4-6.8 19.3-32.6 11.5-17.7 21.3-32.2 21.6-32.2s8.3 12.5 17.7 27.8zm240.2 34.9c-5.5 10.4-10.3 19.1-10.7 19.5-.3.3-5.5-.5-11.6-1.8-17.5-3.7-14.6-4.8-39.3 14.7-11.9 9.4-21.8 16.7-21.9 16.2-.4-1.2 7.5-56.5 8.2-57.1.6-.6 75.8-9.9 81.7-10.1l3.6-.1-10 18.7zm-91.8-5c0 1-2.1 16.8-4.6 35.1l-4.7 33.3-7.4 6c-4.3 3.6-7.6 7.1-7.9 8.6-.5 1.8.8 5.9 4.4 14.5l5.1 12.1-7.1 50.4c-3.9 27.7-7.4 50-7.8 49.6-.7-.8-77-195.9-77.3-197.7-.2-.9 94.9-13.1 104.1-13.5 2.4-.1 3.2.3 3.2 1.6zm95.9 43.6l29.4 6.3-21.9 18.5c-25.7 21.6-25.3 21.3-25.8 20.8-.3-.2-3-11.2-6-24.4-3.1-13.2-5.9-24.8-6.2-25.8-.3-.9-.2-1.7.3-1.7.4 0 14 2.9 30.2 6.3zm-39.1 23.9c3.3 14.5 6 26.3 5.9 26.4-.9.5-61.7-13.2-61.4-13.9.3-1 47.9-38.7 48.8-38.7.3 0 3.3 11.8 6.7 26.2zm129.2-4.7c15.1 3.1 27.9 6.1 28.3 6.5.7.6-25.2 36.6-30.4 42.4-.6.7-27.9-53.3-27.9-55.2 0-.2.6-.2 1.3.1.6.2 13.6 3 28.7 6.2zm-32 24.4c7.7 15.6 13.9 28.5 13.8 28.7-.2.1-17.8-3.4-39-7.9-36.9-7.8-38.7-8.3-37-9.9 4.1-4.2 46.8-39.7 47.4-39.5.3.1 7 13 14.8 28.6zm89.2 19.9c8.1 15.2 14.6 27.8 14.4 27.9-.2.3-61.9-12.7-62.3-13-.1-.1 7.1-10 16-21.8 8.9-11.9 16.4-21.5 16.7-21.2.3.2 7.1 12.9 15.2 28.1zM262 239c18.7 4 34.3 7.5 34.7 7.8.7.7 9.1 161.4 8.6 166.2-.2 2.4-7.8-14.5-34-76.2-18.6-43.7-36.2-85.1-39.2-92.2-3-7-5.1-12.7-4.8-12.7.4 0 16 3.2 34.7 7.1zm93.6 19.9c23.3 5 43.4 9.2 44.6 9.5 2 .5-.7 6.4-38 81.6-22.1 44.7-40.3 80.3-40.5 79.3-.2-1.5-9.2-176.3-9.2-178.7 0-.9-4.7-1.8 43.1 8.3zm-122.2 27.4c2.8 6.5 5.1 12.2 5.1 12.8 0 .9-18.9 36.8-19.4 36.8-.1 0 1.5-12 3.5-26.8 2.1-14.7 4.1-28.7 4.4-31 .4-2.4.8-4.2 1-4s2.7 5.7 5.4 12.2zm232.4-169.4c-7.2 3-4.7 14 3.2 14 8.6 0 10-12.6 1.5-14.4-1.4-.3-3.5-.1-4.7.4zm-419.6 190c-1.5 1.2-3.4 3.7-4.3 5.5-2.5 5.4-9.2 12.4-14.9 15.6-11.8 6.7-12.3 12.9-1.4 18.5 6.5 3.2 12.8 9.5 16.5 16.4 5.1 9.5 11.7 9.5 16.8 0 3.5-6.4 10.6-13.9 15.6-16.2 6.5-3.1 10.1-8.8 8-12.7-.6-1.2-3.5-3.2-6.4-4.7-6.7-3.3-13.4-10-17.8-17.9-2.8-5-3.9-6-6.4-6.3-1.9-.2-4 .5-5.7 1.8zm9.2 25.8l4.8 4.8-4.8 5.1-4.8 5.1-5.1-5.1-5.1-5.1 4.8-4.8c2.6-2.6 4.9-4.8 5.1-4.8.1 0 2.5 2.2 5.1 4.8zm50.8 50.2c-5.3 4.2-2.4 13 4.3 13 4 0 7-3.1 7-7.3 0-6.1-6.6-9.4-11.3-5.7zm41.6 43.5c-1.2.8-3.8 4.5-5.9 8.2-4.6 8.3-15 18.8-22.4 22.7-7.2 3.8-10 6.4-10 9.3 0 4.2 1.8 6.1 9.3 10 9.3 4.9 18 13.6 23.2 23.3 6.9 12.9 12.1 12.9 19 0 5.2-9.5 14.1-18.5 23.3-23.4 7.8-4 9.5-6 9-10.9-.3-2.9-1.1-3.6-7.8-7.2-9.6-5.1-20.4-15.7-24.4-24-1.6-3.3-3.6-6.8-4.4-7.8-1.8-2.1-6-2.2-8.9-.2zm12.9 31.8l9.3 9.3-5 4c-2.7 2.2-6.8 6.3-9 9.1s-4.2 5.2-4.5 5.2-2.3-2.4-4.5-5.2-6.3-6.9-9-9.1l-5-4.1 9-9.1c5-5 9.1-9.2 9.2-9.3 0 0 4.3 4.1 9.5 9.2zm68-31.7c-2.9 2-3.1 8.3-.2 10.9 4.8 4.4 12 1 12-5.6 0-4.3-2.7-6.9-7-6.9-1.4 0-3.6.7-4.8 1.6zM50.5 439.9c-1.1 1.1-2 3.3-2 5 0 6.7 8.8 9.6 12.9 4.4 2.6-3.4 2.6-5.4 0-8.8-2.6-3.3-7.9-3.6-10.9-.6z"/></svg>