<svg data-name="Слой 1" xmlns="http://www.w3.org/2000/svg" viewBox="0 0 508.32 512"><path d="M127 0h78c4.98 2.81 8.81 6.81 11.5 12l22 34a49.69 49.69 0 012.5 8.5c-8.45 25.17-16.78 50.34-25 75.5 32.32 9.82 59.15 27.82 80.5 54 55.75-14.32 106.25-3.82 151.5 31.5 50.33 44.99 69.16 100.83 56.5 167.5-10.91 43.35-34.74 77.52-71.5 102.5-22.43 14.31-46.77 23.14-73 26.5h-37c-45.14-6.32-82.64-26.65-112.5-61-65.69 15.33-122.03-1-169-49C18.51 376 4.67 345.67 0 311c1.2-6.77 5.2-9.27 12-7.5l3.5 3.5C27.79 377.96 68.96 421.79 139 438.5c68.67 9.07 121.51-15.43 158.5-73.5 21.38-38.35 25.55-78.35 12.5-120-9.57 2.91-18.41 7.24-26.5 13 10.52 49.09-2.64 90.59-39.5 124.5-33.38 26.21-70.72 33.88-112 23-45.96-15.08-74.12-46.24-84.5-93.5-7.4-56.02 12.76-98.85 60.5-128.5 42.58-20.75 84.24-19.08 125 5a203.75 203.75 0 0118.5 15.5c8.8-5.65 17.96-10.65 27.5-15-39.23-41.91-87.23-57.74-144-47.5-50.96 11.97-87.13 41.8-108.5 89.5-6.51 16.05-10.51 32.72-12 50-4.3 4.95-8.97 5.28-14 1 1.12-45.02 17.96-83.19 50.5-114.5 19.1-17.56 41.1-30.39 66-38.5-9.06-24.62-17.4-49.45-25-74.5.02-3.38.85-6.55 2.5-9.5 9.25-13.5 18.25-27.16 27-41 2.01-1.2 3.85-2.53 5.5-4zm6 15c22-.17 44 0 66 .5 6.33 9.67 12.67 19.33 19 29-34.34.83-68.67.67-103-.5 6.27-9.55 12.27-19.22 18-29zm-11 47c29.16-1.16 58.5-1.33 88-.5A1851.555 1851.555 0 00164 97c-14.02-11.69-28.02-23.36-42-35zm92 16c.88-.13 1.54.2 2 1-5.33 15-10.67 30-16 45-1 .33-2 .67-3 1-21.66-3.9-43.33-3.9-65 0-5.16-15.31-9.99-30.64-14.5-46 11.93 10.05 23.76 20.21 35.5 30.5 7.92 4.88 15.58 4.55 23-1 12.85-10.03 25.52-20.2 38-30.5zm-59 107c31.87-2.32 59.54 7.18 83 28.5-48.87 40.28-69.7 92.11-62.5 155.5 1.07 8.05 2.91 15.88 5.5 23.5-45.74 5.05-80.9-11.79-105.5-50.5-20.96-41.16-17.96-80.49 9-118 18.72-21.77 42.22-34.77 70.5-39zm170 9c70.8-3.2 122.3 26.46 154.5 89 25.14 64.97 13.64 122.47-34.5 172.5-49.36 42.47-104.36 51.81-165 28-20.14-8.8-37.47-21.47-52-38a185.49 185.49 0 0028-14.5c41.43 36.9 87.76 44.4 139 22.5 51.86-29.55 73.36-74.05 64.5-133.5-13.45-52.79-46.95-84.29-100.5-94.5-53.88-5.31-95.04 14.86-123.5 60.5-9.21 16.51-13.88 34.17-14 53 4.31 6.01 8.98 6.34 14 1 2.95-27.23 13.95-50.56 33-70 7.14 53.89-13.69 92.72-62.5 116.5a33.463 33.463 0 01-10 2.5c-15.48-61.38-.48-113.88 45-157.5 24.26-20.92 52.26-33.42 84-37.5zm10 46c48.5.38 83 22.38 103.5 66 15.24 43.82 6.74 82.32-25.5 115.5-37.68 31.5-78.68 36.5-123 15-7.02-4.51-13.69-9.51-20-15 49.32-41.85 69.82-95.02 61.5-159.5a489.25 489.25 0 00-4.5-21c2.89.31 5.55-.03 8-1z" style="isolation:isolate" fill-rule="evenodd" opacity=".93"/></svg>