<svg id="_Слой_1" data-name="Слой 1" xmlns="http://www.w3.org/2000/svg" viewBox="0 0 512 512"><defs><style>.cls-1{opacity:.91}.cls-1,.cls-4,.cls-5,.cls-6{fill-rule:evenodd;isolation:isolate}.cls-4{opacity:.95}.cls-5{opacity:.93}.cls-6{opacity:.94}</style></defs><path class="cls-1" d="M277 0h3c6.84 7.01 13.51 14.17 20 21.5-6.47 7.64-13.47 14.8-21 21.5-7.67-7-15-14.33-22-22 6.69-7.02 13.36-14.02 20-21z"/><path d="M443 18c27.83-.36 44.66 12.98 50.5 40 1.52 23.15-8.32 39.31-29.5 48.5-23.55 6.46-42.05-.37-55.5-20.5-10.42-23.91-5.59-44.08 14.5-60.5 6.39-3.62 13.05-6.12 20-7.5zm2 31c12.15-.02 17.98 5.98 17.5 18-4.53 10.51-12.03 13.35-22.5 8.5-7.53-7.38-7.87-15.05-1-23 2.23-.94 4.23-2.11 6-3.5z" style="isolation:isolate" opacity=".96" fill-rule="evenodd"/><path class="cls-5" d="M214 21c8.08 6.57 15.74 13.74 23 21.5A665.333 665.333 0 01215 64c-7.53-6.7-14.53-13.86-21-21.5 6.49-7.33 13.16-14.49 20-21.5z"/><path class="cls-6" d="M320 41c17.65 16.62 22.82 36.62 15.5 60-5.22 14.54-13.56 26.87-25 37-7.64-6.47-14.8-13.47-21.5-21 6.48-7.31 11.98-15.31 16.5-24 4.04-11.31 1.87-21.31-6.5-30 7.02-7.35 14.02-14.69 21-22z"/><path class="cls-4" d="M256 63c2.89 1.38 5.39 3.38 7.5 6 14.64 22.14 15.3 44.81 2 68-8.19 12.37-18.03 23.37-29.5 33-7.53-6.7-14.53-13.86-21-21.5 6.82-7.49 13.65-14.99 20.5-22.5 7.32-9.27 9.65-19.61 7-31a37.178 37.178 0 00-7.5-10.5c7.2-7.04 14.2-14.2 21-21.5z"/><path d="M3 512H0v-3a73996.75 73996.75 0 00132.5-354c.67-1.33.67-2.67 0-4a805.213 805.213 0 01-23.5-24 576.72 576.72 0 0120-20.5c1-.67 2-.67 3 0 91.71 91.37 183.04 183.04 274 275-6.47 7.64-13.47 14.8-21 21.5a793.084 793.084 0 01-24-23.5c-1.33-.67-2.67-.67-4 0A73996.75 73996.75 0 003 512zm154-335c59.93 58.26 119.26 117.26 178 177-12.8 5.1-25.63 10.1-38.5 15-13.48-38.79-40.31-53.62-80.5-44.5-30.72 13.59-43.55 37.09-38.5 70.5a225.32 225.32 0 005 16c-21.9 8.52-43.9 16.86-66 25-.77-.14-1.44-.48-2-1-3.34-7.35-7.67-14.02-13-20-7.99-7.34-16.49-13.84-25.5-19.5 8.03-22.54 16.7-44.7 26-66.5 28.74 12.68 53.9 7.68 75.5-15 16.74-23.65 17.74-47.98 3-73-9.54-12.85-22.04-21.35-37.5-25.5 5.16-12.66 9.83-25.49 14-38.5zm-25 69c22.65 4.83 31.15 18.49 25.5 41-7.89 14.86-20.05 20.36-36.5 16.5a58.881 58.881 0 01-9-5c6.77-17.47 13.43-34.97 20-52.5zm100 106c14.52-.83 25.02 5.17 31.5 18 1.32 3.27 1.99 6.6 2 10-17.33 6.67-34.67 13.33-52 20-9.78-15.06-8.28-28.89 4.5-41.5 4.38-3.02 9.04-5.19 14-6.5zM53 459c3.2-10.08 6.7-20.08 10.5-30 .73-1.66 1.89-2.16 3.5-1.5 7.73 4.73 13.73 11.06 18 19-.41.95-1.07 1.61-2 2-9.93 3.8-19.92 7.3-30 10.5z" style="isolation:isolate" opacity=".96" fill-rule="evenodd"/><path d="M383 106c1.05-.15 2.05.02 3 .5l19.5 19.5c.67 1 .67 2 0 3L301 233.5c-.67.67-1.33.67-2 0L278.5 213c-.67-.67-.67-1.33 0-2 35.04-34.87 69.87-69.87 104.5-105z" style="isolation:isolate" opacity=".93" fill-rule="evenodd"/><path class="cls-6" d="M424 173c18.59-1.03 34.26 5.14 47 18.5a665.333 665.333 0 01-22 21.5c-11.94-10.88-24.61-11.72-38-2.5-4.89 2.95-9.22 6.62-13 11-1.26.98-2.59 1.32-4 1L374.5 203c-.67-1-.67-2 0-3 13.62-14.39 30.12-23.39 49.5-27z"/><path class="cls-1" d="M512 232v3c-6.98 6.65-13.98 13.31-21 20-7.67-7-15-14.33-22-22 6.7-7.53 13.86-14.53 21.5-21 7.33 6.49 14.49 13.16 21.5 20z"/><path class="cls-4" d="M400 237c19-2.17 35.17 3.5 48.5 17 .67.67.67 1.33 0 2l-21 21c-6.56-7.41-14.73-10.24-24.5-8.5-6.56 1.95-12.56 4.95-18 9-6.97 5.97-13.64 12.3-20 19-1 .67-2 .67-3 0L342.5 277c14.19-20.36 33.36-33.69 57.5-40z"/><path class="cls-5" d="M469 275c7.65 6.98 14.98 14.31 22 22-6.7 7.53-13.86 14.53-21.5 21-7.64-6.47-14.8-13.47-21.5-21 7.02-7.35 14.02-14.69 21-22z"/></svg>