<svg data-name="Слой 1" xmlns="http://www.w3.org/2000/svg" viewBox="0 0 32 32"><g data-name="Layer 2"><path d="M23.52 29h-15a5.476 5.476 0 01-5.31-6.83L6.25 9.76a1 1 0 011-.76H24c.45-.02.86.27 1 .7l3.78 12.16c.52 1.68.22 3.5-.83 4.91A5.395 5.395 0 0123.52 29zM8 11L5.11 22.65c-.47 1.88.67 3.78 2.55 4.25.27.07.55.1.82.1h15c1.1 0 2.14-.53 2.79-1.42.67-.9.86-2.06.53-3.13L23.28 11H8z"/><path d="M20 17c-.55 0-1-.45-1-1V8c0-1.66-1.34-3-3-3s-3 1.34-3 3v8c0 .55-.45 1-1 1s-1-.45-1-1V8c0-2.76 2.24-5 5-5s5 2.24 5 5v8c0 .55-.45 1-1 1z"/></g><path fill="none" d="M0 0h32v32H0z"/></svg>