<svg xmlns="http://www.w3.org/2000/svg" width="512" height="512" shape-rendering="geometricPrecision" text-rendering="geometricPrecision" image-rendering="optimizeQuality" fill-rule="evenodd" clip-rule="evenodd"><path d="M337.5 31.5c37.026-3.58 70.36 5.586 100 27.5 28.735 26.002 43.068 58.502 43 97.5-.78 28.734-6.613 56.401-17.5 83-9.185 22.041-20.185 43.041-33 63-18.245 22.272-41.078 28.772-68.5 19.5-26.26-13.013-37.426-34.179-33.5-63.5a86.35 86.35 0 013-10c12.628-19.592 22.294-40.592 29-63 5.305-18.05 6.972-36.383 5-55-35.224 8.864-67.39 24.03-96.5 45.5-47.744 35.069-86.244 78.236-115.5 129.5a265.123 265.123 0 00-22.5 59.5c39.195 2.382 75.195-7.285 108-29 21.562-11.623 42.895-11.29 64 1 22.272 18.244 28.772 41.077 19.5 68.5-4.616 11.283-12.116 20.116-22.5 26.5-31.718 20.687-66.051 35.354-103 44-37.317 8.671-72.984 4.338-107-13-34.557-21.917-53.724-53.417-57.5-94.5-1.986-35.403 4.014-69.403 18-102C89.513 180.983 150.013 114.483 231.5 67c33.057-18.963 68.39-30.797 106-35.5zm96 75c-23.628-11.184-48.295-14.018-74-8.5-33.034 7.52-63.7 20.52-92 39-70.049 44.712-122.216 104.879-156.5 180.5-9.347 21.889-14.514 44.722-15.5 68.5-.025 16.73 3.641 32.563 11 47.5-23.797-14.216-37.63-35.216-41.5-63-2.968-27.865.699-54.865 11-81 16.859-41.816 40.525-79.149 71-112 35.886-39.574 77.72-71.074 125.5-94.5 31.059-15.013 63.725-21.013 98-18 27.814 3.881 48.814 17.715 63 41.5zm-35 23c22.939 3.773 36.439 17.106 40.5 40 1.974 22.466-1.359 44.133-10 65-8.134 19.1-18.301 36.933-30.5 53.5-13.175 8.328-24.675 6.494-34.5-5.5-4.422-7.137-5.088-14.471-2-22 26.035-39.806 38.201-83.473 36.5-131zm-129 230c20.586 4.172 27.419 16.172 20.5 36-2.167 3.5-5 6.333-8.5 8.5a316.554 316.554 0 01-47 25c-20.864 8.64-42.53 11.973-65 10-22.432-3.932-35.765-17.099-40-39.5 47.435.724 91.102-11.776 131-37.5a547.49 547.49 0 009-2.5z" opacity=".966"/></svg>