<svg xmlns="http://www.w3.org/2000/svg" width="512" height="512" shape-rendering="geometricPrecision" text-rendering="geometricPrecision" image-rendering="optimizeQuality" fill-rule="evenodd" clip-rule="evenodd"><path d="M243.5 31.5c45.411-2.694 70.578 18.64 75.5 64l1 18c16.582-4.137 32.416-2.137 47.5 6a10406.97 10406.97 0 0086-85.5c8.722-4.236 16.555-3.07 23.5 3.5 3.333 6.667 3.333 13.333 0 20a10402.3 10402.3 0 00-85.5 86c8.191 15.072 10.191 30.905 6 47.5 21.204-.783 40.871 4.217 59 15 19.329 15.971 26.829 36.471 22.5 61.5-5.982 27.98-23.149 44.48-51.5 49.5a170.737 170.737 0 01-30 3c6.346 29.3-2.654 52.634-27 70-15.822 9.528-32.656 12.028-50.5 7.5.63 19.855-3.703 38.522-13 56-15.681 21.572-36.848 30.072-63.5 25.5-21.808-4.478-36.975-16.978-45.5-37.5-4.93-14.248-7.264-28.915-7-44-16.595 4.191-32.428 2.191-47.5-6a917.504 917.504 0 00-36 36c9.467 26.095 2.801 46.928-20 62.5-23.95 10.873-44.783 6.707-62.5-12.5-8.66-11.982-11.66-25.315-9-40 8.654-28.421 27.82-40.921 57.5-37.5 3.775 1.043 7.442 2.043 11 3a1756.852 1756.852 0 0035-35.5c-8.191-15.072-10.191-30.905-6-47.5-21.204.783-40.87-4.217-59-15-19.329-15.971-26.829-36.471-22.5-61.5 5.982-27.98 23.149-44.48 51.5-49.5a170.74 170.74 0 0130-3c-6.326-29.333 2.674-52.667 27-70 15.822-9.528 32.656-12.028 50.5-7.5-.63-19.855 3.703-38.522 13-56 9.609-14.115 22.776-22.782 39.5-26zm11 32c14.064.24 23.564 6.906 28.5 20a70.178 70.178 0 013 13c1.922 33.293-1.745 65.96-11 98-6.243-2.402-12.743-3.402-19.5-3-6.757-.402-13.257.598-19.5 3-10.676-35.414-13.676-71.414-9-108 3.732-14.417 12.899-22.083 27.5-23zm-51 140a857.582 857.582 0 00-54-10.5c-10.278-20.5-5.278-36.167 15-47 9.939-3.712 19.273-2.546 28 3.5a1156.885 1156.885 0 0011 54zm104 0a657.092 657.092 0 0010.5-54c20.5-10.278 36.167-5.278 47 15 3.712 9.939 2.546 19.273-3.5 28a1156.885 1156.885 0 00-54 11zm-197 20a354.956 354.956 0 0184 12.5c-2.402 6.243-3.402 12.743-3 19.5-.402 6.757.598 13.257 3 19.5-34.136 10.081-68.803 13.414-104 10-24.4-6.635-31.9-21.801-22.5-45.5 3.99-5.311 9.157-9.145 15.5-11.5 8.971-2.532 17.971-4.032 27-4.5zm288 0c13.036-.161 25.37 2.672 37 8.5 10.458 8.376 13.958 19.21 10.5 32.5-4.542 11.523-13.042 18.356-25.5 20.5-35.197 3.414-69.864.081-104-10 2.402-6.243 3.402-12.743 3-19.5.402-6.757-.598-13.257-3-19.5 26.998-7.335 54.332-11.502 82-12.5zm-150 1c17.08-2.048 29.246 4.619 36.5 20 4.771 18.619-1.396 32.119-18.5 40.5-18.619 4.771-32.119-1.396-40.5-18.5-4.764-20.815 2.736-34.815 22.5-42zm-45 83a1156.885 1156.885 0 00-11 54c-20.293 10.181-35.793 5.181-46.5-15-3.581-9.781-2.581-19.114 3-28a1576.756 1576.756 0 0054.5-11zm104 0a857.582 857.582 0 0054 10.5c10.279 20.497 5.279 36.164-15 47-9.939 3.712-19.273 2.546-28-3.5a1156.885 1156.885 0 00-11-54zm-72 9c13.167 3.985 26.334 3.985 39.5 0 9.255 32.04 12.922 64.707 11 98-4.027 28.586-19.527 38.086-46.5 28.5-8.635-7.435-13.468-16.935-14.5-28.5-1.762-33.236 1.738-65.903 10.5-98zm-177 116c17.265-.243 23.098 7.757 17.5 24-6.251 6.511-13.418 7.677-21.5 3.5-6.51-6.251-7.677-13.418-3.5-21.5 2.114-2.621 4.614-4.621 7.5-6z" opacity=".97"/></svg>