<svg xmlns="http://www.w3.org/2000/svg" width="512" height="512" shape-rendering="geometricPrecision" text-rendering="geometricPrecision" image-rendering="optimizeQuality" fill-rule="evenodd" clip-rule="evenodd"><path d="M22.5-.5h2a666.067 666.067 0 0021.5 22C66.254 10.912 87.087 9.745 108.5 18a113.676 113.676 0 0115 10L184 88.5c13.623 18.001 17.623 38.001 12 60a164.17 164.17 0 00-6 17 55.05 55.05 0 006.5 6c26.5-13.509 51.833-11.676 76 5.5l61.5 61.5c11.837 15.343 16.503 32.676 14 52-1.706 8.78-4.373 17.113-8 25a29.768 29.768 0 007 6c26.348-13.422 51.515-11.588 75.5 5.5l62.5 62.5c14.107 19.542 17.44 40.876 10 64a60.761 60.761 0 01-5.5 11.5 666.266 666.266 0 0022 21.5v2c-8 7.333-15.667 15-23 23h-2a666.266 666.266 0 00-21.5-22c-21.077 11.011-42.577 11.844-64.5 2.5l-11-7-62.5-62.5c-13.623-18.004-17.623-38.004-12-60a164.17 164.17 0 006-17 55.05 55.05 0 00-6.5-6c-26.5 13.509-51.833 11.676-76-5.5L177 272.5c-11.837-15.343-16.503-32.676-14-52 1.706-8.78 4.373-17.113 8-25a29.768 29.768 0 00-7-6c-26.361 13.51-51.528 11.676-75.5-5.5L28 123.5c-14.165-17.275-18.832-36.942-14-59A52.822 52.822 0 0121.5 46a211.688 211.688 0 00-22-20.5v-3c8-7.333 15.667-15 23-23zm51 48c9.077-1.265 17.41.569 25 5.5a2628.039 2628.039 0 0160.5 61.5c4.249 6.965 5.249 14.298 3 22a523.412 523.412 0 00-19.5-19 865.335 865.335 0 00-25 24.5l20 20c-9.478 2.734-18.144 1.067-26-5A2628.628 2628.628 0 0151 95.5c-3.43-7.023-4.264-14.357-2.5-22a55.098 55.098 0 016.5 6l24-24c-1.877-2.423-3.71-5.09-5.5-8zm151 150c8.664-1 16.664.833 24 5.5l59.5 59.5c5.338 7.816 6.671 16.15 4 25a523.412 523.412 0 00-19.5-19 762.454 762.454 0 00-23.5 23c-.667 1-.667 2 0 3a445.01 445.01 0 0117.5 18c-8.639 2.008-16.639.508-24-4.5L203 248.5c-5.338-7.816-6.671-16.15-4-25l19 19a277.222 277.222 0 0024.5-24 523.412 523.412 0 00-19-19.5c.556-.383.889-.883 1-1.5zm151 150c8.789-.637 16.789 1.53 24 6.5a1378.26 1378.26 0 0161.5 63.5c2.536 6.505 3.036 13.172 1.5 20a55.05 55.05 0 01-6.5-6L431.5 456a55.05 55.05 0 016 6.5c-9.05 2.262-17.383.762-25-4.5a2628.43 2628.43 0 01-60.5-61.5c-4.477-7.268-5.477-14.934-3-23l20 20 24.5-24.5-20-20c.916-.278 1.582-.778 2-1.5z" opacity=".969"/></svg>