<svg xmlns="http://www.w3.org/2000/svg" width="512" height="512" shape-rendering="geometricPrecision" text-rendering="geometricPrecision" image-rendering="optimizeQuality" fill-rule="evenodd" clip-rule="evenodd"><path d="M246.5-.5h18c14.108 3.758 24.775 12.092 32 25 22.649 13.435 29.816 32.768 21.5 58-3.871 8.371-9.704 15.038-17.5 20a307.162 307.162 0 00-1 35c12.005.167 24.005 0 36-.5 13.119-16.15 29.786-21.483 50-16 10.985 4.156 19.652 11.156 26 21 20.801 11.038 28.968 28.205 24.5 51.5-3.989 12.648-11.656 22.315-23 29-13.048 25.433-33.215 33.6-60.5 24.5-9.278-4.278-16.278-10.945-21-20a511.925 511.925 0 00-32-.5c-.333 59.67 0 119.337 1 179 19.58 14.246 25.414 32.913 17.5 56-4.612 9.612-11.612 16.946-21 22-6.455 14.635-17.288 23.969-32.5 28h-18c-15.212-4.031-26.045-13.365-32.5-28-22.23-13.681-29.23-33.015-21-58 3.871-8.372 9.704-15.038 17.5-20 1-59.663 1.333-119.33 1-179-10.672-.167-21.339 0-32 .5-12.233 19.977-29.899 27.31-53 22-13.349-4.681-22.849-13.515-28.5-26.5-20.835-12.823-28.168-31.156-22-55 4.352-11.687 12.186-20.187 23.5-25.5 12.099-18.547 29.099-25.88 51-22 10.246 2.949 18.58 8.616 25 17 11.995.5 23.995.667 36 .5a307.162 307.162 0 00-1-35c-17.583-12.235-24.083-28.901-19.5-50 3.661-12.828 11.494-22.162 23.5-28 7.25-12.94 17.917-21.273 32-25zm4 31c10.725-1.376 17.225 3.29 19.5 14l5.5 5.5c12.72 2.95 16.887 10.45 12.5 22.5a47.35 47.35 0 01-12.5 7.5c-4.119 2.74-6.286 6.573-6.5 11.5-.667 21-.667 42 0 63 .84 6.513 4.34 11.013 10.5 13.5 23.333.667 46.667.667 70 0 5.231-2.232 8.731-6.065 10.5-11.5 5.077-6.478 11.244-7.978 18.5-4.5a3898.905 3898.905 0 0012 15c9.165 1.333 14.499 6.5 16 15.5-1.842 8.007-6.842 12.84-15 14.5l-4.5 4.5a196.98 196.98 0 01-5 13c-7.628 6.905-14.961 6.572-22-1-.912-9.233-5.745-15.066-14.5-17.5a1055.972 1055.972 0 00-65 0c-6.69 2.026-10.523 6.526-11.5 13.5-.667 69-.667 138 0 207 1.758 8.425 6.924 13.591 15.5 15.5 6.92 6.103 7.753 12.936 2.5 20.5a85.75 85.75 0 00-15 9 64.79 64.79 0 00-5 13c-7.667 8-15.333 8-23 0a64.79 64.79 0 00-5-13 63.31 63.31 0 00-14.5-8.5c-5.82-7.601-5.153-14.601 2-21 8.576-1.909 13.742-7.075 15.5-15.5.667-69 .667-138 0-207-.977-6.974-4.81-11.474-11.5-13.5a1055.972 1055.972 0 00-65 0c-8.755 2.434-13.588 8.267-14.5 17.5-7.039 7.572-14.372 7.905-22 1a196.98 196.98 0 01-5-13c-3.605-4.221-8.105-7.054-13.5-8.5-7.845-7.306-7.845-14.639 0-22l10-4c3.989-4.961 7.989-9.961 12-15 10.544-3.981 17.711-.481 21.5 10.5 1.938 2.606 4.438 4.439 7.5 5.5 23.333.667 46.667.667 70 0 6.16-2.487 9.66-6.987 10.5-13.5l.5-31.5a361.68 361.68 0 00-1.5-36.5 25.558 25.558 0 00-5.5-6.5 47.35 47.35 0 01-12.5-7.5c-4.387-12.05-.22-19.55 12.5-22.5 4.623-3.846 7.789-8.68 9.5-14.5a81.285 81.285 0 015.5-5z" opacity=".964"/></svg>