<svg xmlns="http://www.w3.org/2000/svg" width="512" height="512" shape-rendering="geometricPrecision" text-rendering="geometricPrecision" image-rendering="optimizeQuality" fill-rule="evenodd" clip-rule="evenodd"><path d="M118.5-.5h18c22.889 8.434 32.389 24.767 28.5 49-3.868 12.533-11.868 21.2-24 26a2400.05 2400.05 0 000 98 39.806 39.806 0 018 7c32.201 48.395 59.201 99.728 81 154 7.588 20.519 12.088 41.686 13.5 63.5-5.369 63.293-39.035 101.459-101 114.5h-30c-61.965-13.041-95.631-51.207-101-114.5 1.412-21.814 5.912-42.981 13.5-63.5 21.798-54.272 48.799-105.605 81-154a39.806 39.806 0 018-7 2400.05 2400.05 0 000-98c-22.455-11.258-29.788-28.924-22-53 5.713-11.223 14.546-18.556 26.5-22zm6 26c8.615-.375 13.615 3.625 15 12-.519 7.52-4.519 11.853-12 13-11.023-3.042-14.189-9.709-9.5-20 1.965-2.05 4.132-3.717 6.5-5zm2 174c25.25 34.82 45.083 72.82 59.5 114 10.537 30.011 4.371 55.844-18.5 77.5-26.667 19.333-53.333 19.333-80 0-22.87-21.656-29.037-47.489-18.5-77.5a425.744 425.744 0 0127-62 1962.99 1962.99 0 0130.5-52zm-85 171c22.623 50.182 60.957 69.015 115 56.5 27.5-10.167 46.333-29 56.5-56.5 9.605 42.538-3.228 76.371-38.5 101.5-43.11 22.318-81.61 16.152-115.5-18.5-19.054-24.763-24.887-52.429-17.5-83zm333-371h18c22.889 8.434 32.389 24.767 28.5 49-3.868 12.533-11.868 21.2-24 26a2400.05 2400.05 0 000 98 39.806 39.806 0 018 7c32.201 48.395 59.201 99.728 81 154 7.588 20.519 12.088 41.686 13.5 63.5-5.369 63.293-39.035 101.459-101 114.5h-30c-61.965-13.041-95.631-51.207-101-114.5 1.412-21.814 5.912-42.981 13.5-63.5 21.799-54.272 48.799-105.605 81-154a39.806 39.806 0 018-7 2400.05 2400.05 0 000-98c-22.455-11.258-29.789-28.924-22-53 5.713-11.223 14.546-18.556 26.5-22zm6 26c8.615-.375 13.615 3.625 15 12-.519 7.52-4.519 11.853-12 13-11.023-3.042-14.189-9.709-9.5-20 1.965-2.05 4.132-3.717 6.5-5zm2 174c25.25 34.82 45.083 72.82 59.5 114 10.537 30.011 4.371 55.844-18.5 77.5-26.667 19.333-53.333 19.333-80 0-22.871-21.656-29.037-47.489-18.5-77.5a425.831 425.831 0 0127-62 1962.99 1962.99 0 0130.5-52zm-85 171c22.623 50.182 60.957 69.015 115 56.5 27.5-10.167 46.333-29 56.5-56.5 9.605 42.538-3.228 76.371-38.5 101.5-43.11 22.318-81.61 16.152-115.5-18.5-19.054-24.763-24.887-52.429-17.5-83z" opacity=".962"/></svg>