<svg xmlns="http://www.w3.org/2000/svg" width="512" height="512" shape-rendering="geometricPrecision" text-rendering="geometricPrecision" image-rendering="optimizeQuality" fill-rule="evenodd" clip-rule="evenodd"><path d="M511.5 196.5v35c-1.752 13.333-5.252 26.333-10.5 39a373.705 373.705 0 01-23.5 39.5c8.705 21.493 4.705 40.159-12 56-12.972 9.11-27.306 12.11-43 9-27.002 23.006-57.669 39.506-92 49.5-2.874 34.712-20.874 57.546-54 68.5-36.883 8.269-65.717-3.231-86.5-34.5-5.972-10.557-9.139-21.89-9.5-34-34.331-9.994-64.998-26.494-92-49.5-24.784 4.755-43.284-3.745-55.5-25.5-4.78-13.224-4.614-26.391.5-39.5A682.235 682.235 0 0111 272.5c-5.886-13.225-9.72-26.892-11.5-41v-35c7.297-37.954 20.297-73.954 39-108-9.82-14.647-11.654-30.313-5.5-47C45.196 19.423 63.696 11.256 88.5 17c23.99 9.8 34.156 27.633 30.5 53.5-3.91 15.578-13.243 26.578-28 33-4.017 67.798 22.149 120.298 78.5 157.5 57.336 32.664 114.669 32.664 172 0 56.351-37.202 82.517-89.702 78.5-157.5-25.741-13.542-34.074-34.209-25-62 11.027-20.596 28.194-29.096 51.5-25.5 18.167 4.833 29.667 16.333 34.5 34.5 2.824 14.008-.01 26.675-8.5 38 18.703 34.046 31.703 70.046 39 108zm-442-150c14.152-1.349 20.319 4.985 18.5 19-5.865 9.746-13.699 11.58-23.5 5.5-6.594-9.986-4.927-18.152 5-24.5zm362 0c14.152-1.349 20.319 4.985 18.5 19-5.865 9.746-13.699 11.58-23.5 5.5-6.594-9.986-4.927-18.152 5-24.5zm-373 70c.266 18.457 2.599 36.79 7 55a404.866 404.866 0 00-30 11l-1-1.5a407.35 407.35 0 0124-64.5zm393 0c10.648 20.486 18.982 41.986 25 64.5l-1 1.5a404.933 404.933 0 00-30-11c4.711-18.023 6.711-36.356 6-55zm-377 84c.876-.131 1.543.202 2 1 10.834 22.828 25.167 43.162 43 61a247.933 247.933 0 01-27 26c-11.698-3.97-23.365-3.97-35 0-11.307-13.945-19.474-29.611-24.5-47-2.194-8.141-2.694-16.308-1.5-24.5a3077.44 3077.44 0 0043-16.5zm360 0a745.53 745.53 0 0145.5 17c.874 17.506-3.126 33.839-12 49a383.424 383.424 0 01-14.5 22c-5.384-2.423-11.051-3.423-17-3-6.863-.085-13.529.748-20 2.5a901.995 901.995 0 01-25-25.5c18.283-17.946 32.616-38.613 43-62zm-290 82c25.931 16.815 54.264 27.648 85 32.5a1901.201 1901.201 0 00-45 78.5c-26.272-8.628-49.939-21.628-71-39 5.672-10.656 7.505-21.99 5.5-34-1.525-3.22-2.192-6.553-2-10a1084.999 1084.999 0 0027.5-28zm220 0a386.952 386.952 0 0129.5 28c.192 3.447-.475 6.78-2 10-2.005 12.01-.172 23.344 5.5 34-21.061 17.372-44.728 30.372-71 39a1901.201 1901.201 0 00-45-78.5c23.442-3.925 45.775-11.258 67-22a192.147 192.147 0 0016-10.5zm-295 34c14.152-1.349 20.319 4.985 18.5 19-5.865 9.746-13.699 11.58-23.5 5.5-6.594-9.986-4.927-18.152 5-24.5zm362 0c14.152-1.349 20.319 4.985 18.5 19-5.865 9.746-13.699 11.58-23.5 5.5-6.594-9.986-4.927-18.152 5-24.5zm-177 16c1.933 1.142 3.433 2.808 4.5 5a1794.252 1794.252 0 0139 70c5.209 25.081-3.625 43.248-26.5 54.5-26.195 7.15-45.361-1.35-57.5-25.5-3.333-10.667-3.333-21.333 0-32a3870.252 3870.252 0 0040.5-72z" opacity=".966"/><path d="M249.5 405.5c16.154-2.013 22.987 4.987 20.5 21-4.348 8.415-11.181 11.248-20.5 8.5-8.415-4.348-11.248-11.181-8.5-20.5 1.688-4.185 4.521-7.185 8.5-9z" opacity=".931"/></svg>