<svg xmlns="http://www.w3.org/2000/svg" width="512" height="512" shape-rendering="geometricPrecision" text-rendering="geometricPrecision" image-rendering="optimizeQuality" fill-rule="evenodd" clip-rule="evenodd"><path d="M248.5-.5h14c9.333 3.807 17.167 9.807 23.5 18A164.06 164.06 0 00309.5 46c4.405.696 8.739.363 13-1a355.424 355.424 0 0140-14c18.501-3 30.334 4.5 35.5 22.5a496.463 496.463 0 016 38c.5 9.833 5.667 15 15.5 15.5a252.62 252.62 0 0144 8c14.72 7.474 20.22 19.307 16.5 35.5a290.605 290.605 0 01-14 37c-3.75 6.3-3.25 12.134 1.5 17.5a419.945 419.945 0 0137.5 31.5 106.037 106.037 0 016.5 12v14c-3.807 9.333-9.807 17.167-18 23.5l-26 20c-4.75 5.366-5.25 11.2-1.5 17.5a205.58 205.58 0 0115 43c.647 16.702-7.186 27.202-23.5 31.5a496.47 496.47 0 01-38 6c-9.833.5-15 5.667-15.5 15.5a252.62 252.62 0 01-8 44c-8.356 15.686-21.19 20.852-38.5 15.5a1687.032 1687.032 0 00-43.5-15.5c-5.516 2.508-10.183 6.175-14 11a184.912 184.912 0 01-25.5 30.5 106.037 106.037 0 01-12 6.5h-14c-9.333-3.807-17.167-9.807-23.5-18a164.075 164.075 0 00-23.5-28.5 27.842 27.842 0 00-13 1 355.364 355.364 0 01-40 14c-18.501 3-30.334-4.5-35.5-22.5a496.47 496.47 0 01-6-38c-.5-9.833-5.667-15-15.5-15.5a252.613 252.613 0 01-44-8c-14.72-7.474-20.22-19.307-16.5-35.5a290.575 290.575 0 0114-37c3.75-6.3 3.25-12.134-1.5-17.5A420.086 420.086 0 016 274.5a106.113 106.113 0 01-6.5-12v-14c3.807-9.333 9.807-17.167 18-23.5l26-20c4.75-5.366 5.25-11.2 1.5-17.5a205.602 205.602 0 01-15-43c-.647-16.702 7.186-27.202 23.5-31.5a496.463 496.463 0 0138-6c9.833-.5 15-5.667 15.5-15.5a252.613 252.613 0 018-44c8.356-15.686 21.19-20.852 38.5-15.5A1690.959 1690.959 0 00197 47.5c5.516-2.508 10.183-6.175 14-11A184.908 184.908 0 01236.5 6a106.113 106.113 0 0112-6.5zm5 23a10.098 10.098 0 016 1.5A143.517 143.517 0 01281 50.5c5.728 8.401 13.228 14.568 22.5 18.5 6.657 1.941 13.324 1.941 20 0a753.461 753.461 0 0041-15 16.25 16.25 0 018 0 19.151 19.151 0 013.5 8.5 911.112 911.112 0 007 42c3.344 10.677 10.177 18.177 20.5 22.5a466.852 466.852 0 0045 8 19.15 19.15 0 018.5 3.5 16.242 16.242 0 010 8c-5.2 13.267-10.2 26.6-15 40-3.361 11.735-1.361 22.401 6 32a287.47 287.47 0 0031.5 25.5c3.987 3.143 6.987 6.976 9 11.5-2.013 4.524-5.013 8.357-9 11.5a287.47 287.47 0 00-31.5 25.5c-7.361 9.599-9.361 20.265-6 32a1437.072 1437.072 0 0015 40 16.242 16.242 0 010 8 19.15 19.15 0 01-8.5 3.5 910.931 910.931 0 00-42 7c-10.677 3.344-18.177 10.177-22.5 20.5a466.852 466.852 0 00-8 45 19.15 19.15 0 01-3.5 8.5 16.242 16.242 0 01-8 0 1437.072 1437.072 0 00-40-15c-11.739-3.363-22.406-1.363-32 6a287.47 287.47 0 00-25.5 31.5c-3.143 3.987-6.976 6.987-11.5 9-4.524-2.013-8.357-5.013-11.5-9a287.47 287.47 0 00-25.5-31.5c-9.594-7.363-20.261-9.363-32-6-13.4 4.8-26.733 9.8-40 15a16.242 16.242 0 01-8 0 19.15 19.15 0 01-3.5-8.5 910.931 910.931 0 00-7-42c-3.344-10.677-10.177-18.177-20.5-22.5a466.885 466.885 0 00-45-8 19.151 19.151 0 01-8.5-3.5 16.25 16.25 0 010-8c5.2-13.267 10.2-26.6 15-40 3.361-11.735 1.361-22.401-6-32A287.432 287.432 0 0031.5 267c-3.987-3.143-6.987-6.976-9-11.5 2.013-4.524 5.013-8.357 9-11.5A287.432 287.432 0 0063 218.5c7.361-9.599 9.361-20.265 6-32-4.8-13.4-9.8-26.733-15-40a16.25 16.25 0 010-8c3.84-2.337 8.006-3.837 12.5-4.5a372.904 372.904 0 0038-6 54.074 54.074 0 0015-8c3.736-4.637 6.57-9.804 8.5-15.5a372.904 372.904 0 006-38c.663-4.494 2.163-8.66 4.5-12.5a16.25 16.25 0 018 0 1440.257 1440.257 0 0040 15c15.54 4.042 28.374-.125 38.5-12.5l19-25a118.787 118.787 0 019.5-9z" opacity=".95"/><path d="M117.5 199.5c5.791-1.011 10.624.656 14.5 5a1962.297 1962.297 0 0045 60l1-58c4.965-7.522 11.298-8.855 19-4a15.39 15.39 0 013 6c.667 31.333.667 62.667 0 94-3.217 8.354-9.05 10.854-17.5 7.5a2228.814 2228.814 0 01-48.5-63.5l-1 57c-5.086 8.919-11.752 10.253-20 4l-2-4a2351.325 2351.325 0 010-97c1.694-2.858 3.861-5.191 6.5-7z" opacity=".956"/><path d="M229.5 199.5c17.337-.167 34.67 0 52 .5 8.492 4.822 9.992 11.322 4.5 19.5a29.517 29.517 0 01-4.5 2.5c-12.329.5-24.662.667-37 .5v21c12.728-.42 25.394.08 38 1.5 6.357 3.909 8.19 9.409 5.5 16.5a17.842 17.842 0 01-5.5 4.5 261.867 261.867 0 01-38 1.5v21c12.338-.167 24.671 0 37 .5 7.869 4.279 9.702 10.446 5.5 18.5a15.83 15.83 0 01-5.5 3.5 675.912 675.912 0 01-52 0c-4.27-1.27-6.77-4.104-7.5-8.5a2208.146 2208.146 0 010-94c.923-4.414 3.423-7.414 7.5-9zm89 0c6.534-.998 11.368 1.336 14.5 7a2853.6 2853.6 0 0113 51 743.374 743.374 0 0010-29c4.519-6.058 10.353-7.558 17.5-4.5l3.5 3.5a1489.582 1489.582 0 0010.5 29 1525.585 1525.585 0 0114.5-53c6.693-5.619 13.026-5.286 19 1 1.52 3.875 1.854 7.875 1 12a4448.09 4448.09 0 01-23 90c-6.049 6.199-12.383 6.532-19 1a607.224 607.224 0 01-13-37l-13 37c-6.738 5.612-13.071 5.278-19-1a1821.018 1821.018 0 01-24.5-95.5c.848-5.227 3.515-9.06 8-11.5z" opacity=".952"/></svg>