<svg xmlns="http://www.w3.org/2000/svg" width="512" height="512" shape-rendering="geometricPrecision" text-rendering="geometricPrecision" image-rendering="optimizeQuality" fill-rule="evenodd" clip-rule="evenodd"><path d="M233.5-.5h44c94.386 11.579 163.886 59.245 208.5 143 13.666 29.009 22.166 59.343 25.5 91v45c-5.768 54.527-26.101 102.86-61 145 4.638 37.894-10.028 65.394-44 82.5a190.039 190.039 0 01-18 5.5h-24c-31.92-7.083-52.42-26.417-61.5-58-6.339-35.474 5.494-62.974 35.5-82.5 14.045-7.543 29.045-10.876 45-10 39.298-51.866 47.465-108.366 24.5-169.5-30.208-64.538-81.041-98.204-152.5-101-71.459 2.796-122.292 36.462-152.5 101-22.965 61.134-14.798 117.634 24.5 169.5 35.277-1.019 60.777 14.148 76.5 45.5 12.826 37.175 3.993 68.008-26.5 92.5-9.679 6.053-20.012 10.22-31 12.5h-24c-26.657-5.265-45.824-20.265-57.5-45-5.344-13.941-6.844-28.274-4.5-43-34.899-42.14-55.232-90.473-61-145v-45C11.079 139.114 58.745 69.613 142.5 25c29.009-13.666 59.343-22.166 91-25.5zm1 31c97.097-4.215 170.263 35.119 219.5 118 29.748 57.901 34.748 117.901 15 180-7.237 21.977-17.737 42.144-31.5 60.5-.667.667-1.333.667-2 0-6.117-7.123-13.117-13.123-21-18 30.609-43.008 42.442-90.841 35.5-143.5-13.557-74.315-55.057-126.148-124.5-155.5-70.35-24.274-135.017-13.94-194 31C76.736 150.731 53.236 210.898 61 283.5c4.617 32.204 16.45 61.37 35.5 87.5a116.11 116.11 0 00-22 18.5c-33.602-46.048-48.102-97.714-43.5-155C41.834 150.274 85 89.108 160.5 51c23.741-10.643 48.408-17.476 74-20.5zm-109 362c27.042-2.433 44.542 9.233 52.5 35 2.92 27.064-8.58 44.564-34.5 52.5-27.064 2.92-44.564-8.58-52.5-34.5-2.713-27.089 8.787-44.756 34.5-53zm242 0c27.042-2.433 44.542 9.233 52.5 35 2.92 27.064-8.58 44.564-34.5 52.5-27.064 2.92-44.564-8.58-52.5-34.5-2.713-27.089 8.787-44.756 34.5-53z" opacity=".964"/></svg>