<svg xmlns="http://www.w3.org/2000/svg" width="98" height="63" shape-rendering="geometricPrecision" text-rendering="geometricPrecision" image-rendering="optimizeQuality" fill-rule="evenodd" clip-rule="evenodd"><path fill="#323332" d="M24.5-.5h8a3043.735 3043.735 0 0022 47.5 25.249 25.249 0 01-10 0 46.717 46.717 0 01-4-10.5c-7.674-.166-15.34 0-23 .5a69.99 69.99 0 00-5 10 25.249 25.249 0 01-10 0 3043.275 3043.275 0 0022-47.5zm3 12c.876-.13 1.543.203 2 1l7 16c-5.333 1.333-10.667 1.333-16 0a186.338 186.338 0 007-17z" opacity=".899"/><path fill="#323332" d="M97.5 56.5v6h-98v-6c19.67.167 39.336 0 59-.5a54.33 54.33 0 012-4.5c5.996 4.209 12.33 4.875 19 2 2.722-3.21 3.556-6.876 2.5-11-6.47 4.709-13.304 5.209-20.5 1.5-7.995-9.685-7.995-19.352 0-29 5.825-2.922 11.825-3.256 18-1 2.47 3.47 3.47 2.97 3-1.5h9c.167 12.671 0 25.338-.5 38a14.437 14.437 0 01-2.5 5.5c2.982.498 5.982.665 9 .5zm-27-37c10.64.436 14.14 5.77 10.5 16-5.487 5.58-10.487 5.247-15-1a25.249 25.249 0 010-10c1.025-2.187 2.525-3.854 4.5-5z" opacity=".928"/></svg>