<svg xmlns="http://www.w3.org/2000/svg" width="512" height="512" shape-rendering="geometricPrecision" text-rendering="geometricPrecision" image-rendering="optimizeQuality" fill-rule="evenodd" clip-rule="evenodd"><path d="M99.5-.5h11c4.734 2.24 7.901 5.906 9.5 11 8.449 49.804 22.782 97.804 43 144 12.273 27.73 29.773 51.563 52.5 71.5 26.679 17.999 53.346 17.999 80 0 22.727-19.937 40.227-43.77 52.5-71.5 20.218-46.196 34.551-94.196 43-144 1.599-5.094 4.766-8.76 9.5-11h11c6.49 2.835 9.823 7.835 10 15-8.957 58.704-26.457 114.704-52.5 168-11.408 22.078-25.908 41.911-43.5 59.5-15.618 14.476-33.952 23.643-55 27.5v32c49.011 9.177 78.845 38.177 89.5 87 5.441 46.401-11.059 82.568-49.5 108.5-12.983 7.159-26.649 11.992-41 14.5h-28c-57.118-11.959-87.784-47.126-92-105.5 2.852-49.827 27.519-83.493 74-101a109.922 109.922 0 0117-3.5v-32c-21.048-3.857-39.382-13.024-55-27.5-18.139-18.113-32.972-38.613-44.5-61.5-25.513-52.71-42.68-108.044-51.5-166 .209-7.189 3.542-12.189 10-15zm146 332c34.838-2.335 60.671 11.665 77.5 42 14.387 36.284 6.887 67.118-22.5 92.5-32.54 21.075-64.206 19.742-95-4-29.532-31.299-32.699-65.133-9.5-101.5 12.991-15.858 29.491-25.525 49.5-29zm7 60c10.016-.15 16.016 4.683 18 14.5-3.174 12.753-10.841 16.753-23 12-6.627-5.339-8.127-11.839-4.5-19.5 2.529-3.385 5.696-5.718 9.5-7z" opacity=".962"/><path d="M248.5 360.5c26.204-1.334 43.371 10.333 51.5 35 4.023 25.125-5.477 42.958-28.5 53.5-21.663 6.555-39.497 1.055-53.5-16.5-12.213-21.129-10.38-40.962 5.5-59.5 7.336-6.335 15.669-10.501 25-12.5zm4 31c-3.804 1.282-6.971 3.615-9.5 7-3.627 7.661-2.127 14.161 4.5 19.5 12.159 4.753 19.826.753 23-12-1.984-9.817-7.984-14.65-18-14.5z" opacity=".961"/></svg>