<svg xmlns="http://www.w3.org/2000/svg" width="512" height="512" shape-rendering="geometricPrecision" text-rendering="geometricPrecision" image-rendering="optimizeQuality" fill-rule="evenodd" clip-rule="evenodd"><path d="M183.5-.5h144c22.354 5.993 36.187 20.326 41.5 43a1560.284 1560.284 0 008 69c16.039 9.047 25.373 22.714 28 41 .667 68.667.667 137.333 0 206-2.734 18.804-12.4 32.804-29 42a11395.72 11395.72 0 00-7 67c-5.161 22.99-18.994 37.657-41.5 44h-144c-22.506-6.343-36.339-21.01-41.5-44a2351.941 2351.941 0 00-7.5-68c-16.412-8.813-25.912-22.479-28.5-41-.667-68.667-.667-137.333 0-206 2.627-18.286 11.961-31.953 28-41a1560.284 1560.284 0 008-69c5.313-22.674 19.146-37.007 41.5-43zm6 29c44.001-.167 88.001 0 132 .5 9.915 2.916 16.082 9.416 18.5 19.5a2058.31 2058.31 0 015.5 57h-180a1002.85 1002.85 0 016.5-61c3.528-8.035 9.361-13.368 17.5-16zm-37 107c68.667-.167 137.334 0 206 .5 8.167 2.833 13.667 8.333 16.5 16.5.667 68.667.667 137.333 0 206-2.833 8.167-8.333 13.667-16.5 16.5-68.667.667-137.333.667-206 0-8.167-2.833-13.667-8.333-16.5-16.5-.667-68.667-.667-137.333 0-206 3.019-8.184 8.519-13.851 16.5-17zm13 270h180a7973.67 7973.67 0 01-5.5 56c-1.951 10.619-8.118 17.452-18.5 20.5-44 .667-88 .667-132 0-10.382-3.048-16.549-9.881-18.5-20.5a2864.267 2864.267 0 01-5.5-56z" opacity=".959"/><path d="M247.5 183.5c6.654.077 11.487 3.077 14.5 9a1054.091 1054.091 0 012 62 380.143 380.143 0 0027.5 16.5c7.361 5.861 8.861 13.028 4.5 21.5-5.395 6.049-11.895 7.549-19.5 4.5l-38-23a15.83 15.83 0 01-3.5-5.5 681.34 681.34 0 01-1-73c2.233-6.743 6.733-10.743 13.5-12z" opacity=".947"/></svg>