<svg xmlns="http://www.w3.org/2000/svg" width="512" height="512" shape-rendering="geometricPrecision" text-rendering="geometricPrecision" image-rendering="optimizeQuality" fill-rule="evenodd" clip-rule="evenodd"><path d="M312.5-.5h38c76.224 11.383 127.39 53.383 153.5 126a298.75 298.75 0 017.5 35v38c-8.902 64.323-41.902 111.823-99 142.5a236.738 236.738 0 01-22.5 9.5 340.802 340.802 0 00-1-50c54.713-29.072 80.046-74.739 76-137-8.073-50.996-35.573-87.163-82.5-108.5-59.864-20.66-111.364-7.826-154.5 38.5-32.69 42.493-39.356 88.826-20 139 15.895 34.23 41.228 58.563 76 73 3.473 16.059 3.306 32.059-.5 48-64.702-19.868-106.868-62.202-126.5-127-16.668-74.655 3.498-137.155 60.5-187.5 28.016-22.01 59.683-35.177 95-39.5z" opacity=".972"/><path d="M198.5 511.5h-38C84.273 500.112 33.106 458.112 7 385.5a298.722 298.722 0 01-7.5-35v-38c8.9-63.319 41.233-110.485 97-141.5a263.017 263.017 0 0124.5-10.5 487.712 487.712 0 000 40 51.727 51.727 0 001.5 9.5C67.503 239.141 42.003 284.974 46 347.5c8.073 50.996 35.573 87.163 82.5 108.5 59.851 20.662 111.351 7.829 154.5-38.5 32.69-42.493 39.356-88.826 20-139-15.87-34.204-41.203-58.537-76-73-3.472-16.061-3.306-32.061.5-48 61.937 18.77 103.437 58.77 124.5 120 20.05 77.013.55 141.846-58.5 194.5-28.001 22.001-59.668 35.168-95 39.5z" opacity=".972"/></svg>